<svg xmlns="http://www.w3.org/2000/svg" xmlns:xlink="http://www.w3.org/1999/xlink" viewBox="0,0,256,256" width="128px" height="128px" fill-rule="nonzero"><g fill="#e09c2e" fill-rule="nonzero" stroke="none" stroke-width="1" stroke-linecap="butt" stroke-linejoin="miter" stroke-miterlimit="10" stroke-dasharray="" stroke-dashoffset="0" font-family="none" font-weight="none" font-size="none" text-anchor="none" style="mix-blend-mode: normal"><g transform="scale(2,2)"><path d="M14,1c-7.2,0 -13,5.8 -13,13v80.59961c0,6.6 1.6,13.30117 4.5,19.20117l5.80078,11.59961c0.5,1 1.49922,1.69922 2.69922,1.69922c1.2,0 2.19922,-0.59922 2.69922,-1.69922l5.80078,-11.59961c3,-5.9 4.5,-12.60117 4.5,-19.20117v-73.5c3.4,0.5 6,3.40039 6,6.90039v42c0,1.7 1.3,3 3,3c1.7,0 3,-1.3 3,-3v-42c0,-6.8 -5.3,-12.40039 -12,-12.90039v-1.09961c0,-7.2 -5.8,-13 -13,-13zM44,1c-1.7,0 -3,1.3 -3,3c0,1.7 1.3,3 3,3h77v37c0,1.7 1.3,3 3,3c1.7,0 3,-1.3 3,-3v-40c0,-1.7 -1.3,-3 -3,-3zM14,7c3.9,0 7,3.1 7,7v80.59961c0,5.7 -1.40039,11.4 -3.90039,16.5l-3.09961,6.20117l-3.09961,-6.20117c-2.5,-5.1 -3.90039,-10.8 -3.90039,-16.5v-80.59961c0,-3.9 3.1,-7 7,-7zM49,36c-1.7,0 -3,1.3 -3,3c0,1.7 1.3,3 3,3h33c1.7,0 3,-1.3 3,-3c0,-1.7 -1.3,-3 -3,-3zM102,36c-1.7,0 -3,1.3 -3,3c0,1.7 1.3,3 3,3h7c1.7,0 3,-1.3 3,-3c0,-1.7 -1.3,-3 -3,-3zM49,56c-1.7,0 -3,1.3 -3,3c0,1.7 1.3,3 3,3h21c1.7,0 3,-1.3 3,-3c0,-1.7 -1.3,-3 -3,-3zM107,59c-11,0 -20,9 -20,20c0,11 9,20 20,20c11,0 20,-9 20,-20c0,-11 -9,-20 -20,-20zM107,65c7.7,0 14,6.3 14,14c0,7.7 -6.3,14 -14,14c-7.7,0 -14,-6.3 -14,-14c0,-7.7 6.3,-14 14,-14zM49,76c-1.7,0 -3,1.3 -3,3c0,1.7 1.3,3 3,3h21c1.7,0 3,-1.3 3,-3c0,-1.7 -1.3,-3 -3,-3zM39,96c-1.7,0 -3,1.3 -3,3c0,1.7 1.3,3 3,3h31c1.7,0 3,-1.3 3,-3c0,-1.7 -1.3,-3 -3,-3zM93.09961,101c-1.7,0 -3,1.3 -3,3v20c0,1.1 0.59961,2.19922 1.59961,2.69922c1,0.5 2.20156,0.40078 3.10156,-0.19922l8.19922,-5.80078c2.4,-1.7 5.69961,-1.7 8.09961,0l8.20117,5.80078c0.5,0.4 1.09922,0.59961 1.69922,0.59961c0.5,0 0.90039,-0.09883 1.40039,-0.29883c1,-0.5 1.59961,-1.50117 1.59961,-2.70117v-20c0,-1.8 -1.3,-3.09961 -3,-3.09961c-1.7,0 -3,1.3 -3,3v14.19922l-3.40039,-2.5c-4.5,-3.2 -10.59961,-3.2 -15.09961,0l-3.40039,2.5v-14.19922c0,-1.7 -1.3,-3 -3,-3zM29,121c-1.7,0 -3,1.3 -3,3c0,1.7 1.3,3 3,3h50c1.7,0 3,-1.3 3,-3c0,-1.7 -1.3,-3 -3,-3z"></path></g></g></svg>