<svg xmlns="http://www.w3.org/2000/svg" xmlns:xlink="http://www.w3.org/1999/xlink" viewBox="0,0,256,256" width="80px" height="80px" fill-rule="nonzero"><g fill="#fc443c" fill-rule="nonzero" stroke="none" stroke-width="1" stroke-linecap="butt" stroke-linejoin="miter" stroke-miterlimit="10" stroke-dasharray="" stroke-dashoffset="0" font-family="none" font-weight="none" font-size="none" text-anchor="none" style="mix-blend-mode: normal"><g transform="scale(3.2,3.2)"><path d="M36.32422,6l-2.27344,5.67578c-3.58203,0.75 -6.91406,2.15234 -9.87891,4.08984l-5.61328,-2.40625l-5.19922,5.19922l2.40625,5.61328c-1.94141,2.96484 -3.33984,6.29688 -4.08984,9.87891l-5.67578,2.27344v7.35156l5.67578,2.27344c0.75,3.58203 2.15234,6.91406 4.08984,9.87891l-2.40625,5.61328l5.19922,5.19922l5.61328,-2.40625c2.96484,1.94141 6.29688,3.33984 9.87891,4.08984l2.27344,5.67578h7.35156l2.27344,-5.67578c3.58203,-0.75 6.91406,-2.15234 9.87891,-4.08984l5.61328,2.40625l5.19922,-5.19922l-2.40625,-5.61328c1.94141,-2.96484 3.33984,-6.29687 4.08984,-9.87891l5.67578,-2.27344v-7.35156l-5.67578,-2.27344c-0.75,-3.58203 -2.15234,-6.91406 -4.08984,-9.87891l2.40625,-5.61328l-5.19922,-5.19922l-5.61328,2.40625c-2.96484,-1.94141 -6.29687,-3.33984 -9.87891,-4.08984l-2.27344,-5.67578zM37.67578,8h4.64844l2.14453,5.37109l0.54297,0.09766c3.72656,0.70313 7.1875,2.16406 10.20703,4.23047l0.45313,0.30469l5.3125,-2.27344l3.28516,3.28516l-2.27734,5.3125l0.30859,0.45313c2.06641,3.01953 3.52734,6.47656 4.22656,10.20703l0.10156,0.54297l5.37109,2.14453v4.64844l-5.37109,2.14453l-0.09766,0.54297c-0.70312,3.72656 -2.16406,7.1875 -4.23047,10.20703l-0.30469,0.45313l2.27344,5.3125l-3.28516,3.28516l-5.3125,-2.27734l-0.45312,0.30859c-3.01953,2.06641 -6.47656,3.52734 -10.20703,4.22656l-0.54297,0.10156l-2.14453,5.37109h-4.64844l-2.14453,-5.37109l-0.54297,-0.09766c-3.72656,-0.70312 -7.1875,-2.16406 -10.20703,-4.23047l-0.45312,-0.30469l-5.3125,2.27344l-3.28516,-3.28516l2.27734,-5.3125l-0.30859,-0.45312c-2.06641,-3.01953 -3.52734,-6.47656 -4.22656,-10.20703l-0.10156,-0.54297l-5.37109,-2.14453v-4.64844l5.37109,-2.14453l0.09766,-0.54297c0.70313,-3.72656 2.16406,-7.1875 4.23047,-10.20703l0.30469,-0.45312l-2.27344,-5.3125l3.28516,-3.28516l5.3125,2.27734l0.45313,-0.30859c3.01953,-2.06641 6.47656,-3.52734 10.20703,-4.22656l0.54297,-0.10156zM40,14c-0.55078,0 -1,0.44922 -1,1c0,0.55078 0.44922,1 1,1c0.55078,0 1,-0.44922 1,-1c0,-0.55078 -0.44922,-1 -1,-1zM42,18.08203v8.03906l0.80078,0.16016c6.38672,1.29688 11.19922,6.93359 11.19922,13.71875c0,1.54688 -0.26172,3.03125 -0.73047,4.43359l-0.25391,0.76953l6.97266,4.03125l0.43359,-1.07422c1.00781,-2.52344 1.57813,-5.27344 1.57813,-8.16016c0,-11.07031 -8.20312,-20.22266 -18.85937,-21.75zM38,18.08594l-1.14062,0.16406c-10.65625,1.52734 -18.85937,10.67969 -18.85937,21.75c0,2.88672 0.57031,5.63672 1.57813,8.16016l0.43359,1.07031l6.97266,-4.02734l-0.25391,-0.77344c-0.46875,-1.39844 -0.73047,-2.88281 -0.73047,-4.42969c0,-6.78516 4.8125,-12.42187 11.19922,-13.71875l0.80078,-0.16016zM36,20.5v4.13672c-6.875,1.79297 -12,7.9375 -12,15.36328c0,1.48047 0.31641,2.86719 0.69141,4.21875l-3.58594,2.07422c-0.66797,-1.99219 -1.10547,-4.08203 -1.10547,-6.29297c0,-9.67578 6.88672,-17.63672 16,-19.5zM44,20.5c9.11328,1.86328 16,9.82422 16,19.5c0,2.21094 -0.4375,4.30469 -1.10547,6.29297l-3.58594,-2.07422c0.375,-1.35156 0.69141,-2.73828 0.69141,-4.21875c0,-7.42578 -5.125,-13.57031 -12,-15.36719zM22.33594,21.32422c-0.26953,-0.00781 -0.53125,0.09766 -0.72266,0.28906c-0.39062,0.39063 -0.39062,1.02734 0,1.41797c0.1875,0.1875 0.44141,0.29297 0.70703,0.29297c0.26563,0 0.51953,-0.10547 0.71094,-0.29297c0.38672,-0.39062 0.38672,-1.02734 0,-1.41797c-0.1875,-0.18359 -0.43359,-0.28906 -0.69531,-0.28906zM57.69141,21.32422c-0.26953,-0.00391 -0.53125,0.10156 -0.72266,0.28906c-0.38672,0.39063 -0.38672,1.02734 0,1.41797c0.39063,0.38672 1.02734,0.38672 1.41797,0c0.38672,-0.39062 0.38672,-1.02734 0,-1.41797c-0.1875,-0.18359 -0.43359,-0.28906 -0.69531,-0.28906zM40,29c-0.55078,0 -1,0.44922 -1,1c0,0.55078 0.44922,1 1,1c0.55078,0 1,-0.44922 1,-1c0,-0.55078 -0.44922,-1 -1,-1zM34.97656,30.33984c-0.16797,0.00391 -0.33203,0.05078 -0.47656,0.13281c-0.23047,0.13281 -0.39844,0.35156 -0.46875,0.60938c-0.06641,0.25391 -0.03125,0.52734 0.10156,0.75781c0.13281,0.23047 0.35156,0.39844 0.60938,0.46484c0.25391,0.07031 0.52734,0.03516 0.75781,-0.10156c0.47656,-0.27344 0.64063,-0.88672 0.36328,-1.36328c-0.17969,-0.31641 -0.51953,-0.50781 -0.88672,-0.5zM44.95313,30.34375c-0.33984,0.01563 -0.64844,0.20313 -0.82031,0.49609c-0.13281,0.23047 -0.16797,0.50391 -0.10156,0.75781c0.07031,0.25781 0.23828,0.47656 0.46875,0.60938c0.47656,0.27734 1.08984,0.10938 1.36328,-0.36719c0.27734,-0.47656 0.11328,-1.08984 -0.36328,-1.36719c-0.16797,-0.09375 -0.35547,-0.14062 -0.54687,-0.12891zM48.63672,34c-0.16797,0.00391 -0.33203,0.05078 -0.48047,0.13281c-0.22656,0.13281 -0.39453,0.35156 -0.46484,0.60938c-0.06641,0.25391 -0.03125,0.52734 0.10156,0.75781c0.27734,0.47656 0.88672,0.64063 1.36328,0.36328c0.48047,-0.27344 0.64453,-0.88672 0.37109,-1.36328c-0.18359,-0.31641 -0.52734,-0.50781 -0.89062,-0.5zM31.29297,34c-0.33984,0.01953 -0.64844,0.20703 -0.82031,0.5c-0.13281,0.23047 -0.16797,0.50391 -0.10156,0.75781c0.07031,0.25781 0.23828,0.47656 0.46875,0.60938c0.47656,0.27734 1.08984,0.10938 1.36328,-0.36719c0.27734,-0.47656 0.11328,-1.08984 -0.36328,-1.36328c-0.16797,-0.09766 -0.35547,-0.14453 -0.54687,-0.13672zM40,35c-2.75,0 -5,2.25 -5,5c0,2.75 2.25,5 5,5c2.75,0 5,-2.25 5,-5c0,-2.75 -2.25,-5 -5,-5zM40,37c1.66797,0 3,1.33203 3,3c0,1.66797 -1.33203,3 -3,3c-1.66797,0 -3,-1.33203 -3,-3c0,-1.66797 1.33203,-3 3,-3zM15,39c-0.55078,0 -1,0.44922 -1,1c0,0.55078 0.44922,1 1,1c0.55078,0 1,-0.44922 1,-1c0,-0.55078 -0.44922,-1 -1,-1zM30,39c-0.55078,0 -1,0.44922 -1,1c0,0.55078 0.44922,1 1,1c0.55078,0 1,-0.44922 1,-1c0,-0.55078 -0.44922,-1 -1,-1zM50,39c-0.55078,0 -1,0.44922 -1,1c0,0.55078 0.44922,1 1,1c0.55078,0 1,-0.44922 1,-1c0,-0.55078 -0.44922,-1 -1,-1zM65,39c-0.55078,0 -1,0.44922 -1,1c0,0.55078 0.44922,1 1,1c0.55078,0 1,-0.44922 1,-1c0,-0.55078 -0.44922,-1 -1,-1zM31.31641,44c-0.16797,0.00391 -0.33203,0.04688 -0.47656,0.13281c-0.47656,0.27734 -0.64453,0.88672 -0.36719,1.36719c0.13281,0.22656 0.35156,0.39453 0.60938,0.46484c0.25391,0.07031 0.52734,0.03516 0.75781,-0.10156c0.23047,-0.12891 0.39844,-0.34766 0.46484,-0.60547c0.07031,-0.25781 0.03516,-0.53125 -0.10156,-0.75781c-0.17969,-0.32031 -0.51953,-0.51172 -0.88672,-0.5zM48.60938,44c-0.33984,0.01953 -0.64844,0.20703 -0.81641,0.5c-0.27734,0.48047 -0.11328,1.08984 0.36328,1.36719c0.48047,0.27734 1.08984,0.11328 1.36719,-0.36719c0.13281,-0.22656 0.16797,-0.5 0.10156,-0.75781c-0.07031,-0.25781 -0.23828,-0.47656 -0.46875,-0.60547c-0.16406,-0.09766 -0.35547,-0.14453 -0.54687,-0.13672zM44.97266,47.65625c-0.16406,0.00781 -0.32812,0.05078 -0.47266,0.13672c-0.48047,0.27734 -0.64453,0.88672 -0.36719,1.36328c0.27734,0.48047 0.88672,0.64453 1.36719,0.37109c0.22656,-0.13281 0.39453,-0.35156 0.46484,-0.60937c0.07031,-0.25781 0.03516,-0.53125 -0.10156,-0.76172c-0.17969,-0.31641 -0.52344,-0.50781 -0.89062,-0.5zM34.95313,47.66016c-0.33984,0.01953 -0.64844,0.20703 -0.82031,0.5c-0.13281,0.23047 -0.16797,0.50391 -0.10156,0.75781c0.07031,0.25781 0.23828,0.47656 0.46875,0.60938c0.22656,0.13281 0.5,0.16797 0.75781,0.10156c0.25781,-0.07031 0.47656,-0.23828 0.60547,-0.46875c0.27734,-0.47656 0.11328,-1.08984 -0.36328,-1.36328c-0.16797,-0.09766 -0.35937,-0.14453 -0.54687,-0.13672zM28.99219,48.66406l-6.97656,4.02734l0.71484,0.91016c4.02344,5.10547 10.26563,8.39844 17.26953,8.39844c7.00391,0 13.24609,-3.29297 17.26953,-8.39844l0.71484,-0.91016l-6.97656,-4.02734l-0.54297,0.61328c-2.56641,2.89453 -6.28906,4.72266 -10.46484,4.72266c-4.17578,0 -7.89844,-1.82812 -10.46484,-4.72266zM40,49c-0.55078,0 -1,0.44922 -1,1c0,0.55078 0.44922,1 1,1c0.55078,0 1,-0.44922 1,-1c0,-0.55078 -0.44922,-1 -1,-1zM28.65625,51.16797c2.89844,2.94531 6.88672,4.83203 11.34375,4.83203c4.45703,0 8.44531,-1.88672 11.34375,-4.83203l3.53125,2.03516c-3.66406,4.12891 -8.92187,6.79688 -14.875,6.79688c-5.95312,0 -11.21094,-2.66797 -14.875,-6.79687zM22.33594,56.67578c-0.26953,0 -0.53125,0.10547 -0.72266,0.29297c-0.38672,0.39063 -0.38672,1.02734 0,1.41797c0.39063,0.38672 1.02734,0.38672 1.41797,0c0.38672,-0.39062 0.38672,-1.02734 0,-1.41797c-0.1875,-0.18359 -0.43359,-0.28906 -0.69531,-0.29297zM57.69141,56.67578c-0.26953,0 -0.53125,0.10547 -0.72266,0.29297c-0.38672,0.39063 -0.38672,1.02734 0,1.41797c0.39063,0.38672 1.02734,0.38672 1.41797,0c0.38672,-0.39062 0.38672,-1.02734 0,-1.41797c-0.1875,-0.18359 -0.43359,-0.28906 -0.69531,-0.29297zM40,64c-0.55078,0 -1,0.44922 -1,1c0,0.55078 0.44922,1 1,1c0.55078,0 1,-0.44922 1,-1c0,-0.55078 -0.44922,-1 -1,-1z"></path></g></g></svg>