<svg xmlns="http://www.w3.org/2000/svg" xmlns:xlink="http://www.w3.org/1999/xlink" viewBox="0,0,256,256" width="50px" height="50px" fill-rule="nonzero"><g fill="#e09c2e" fill-rule="nonzero" stroke="none" stroke-width="1" stroke-linecap="butt" stroke-linejoin="miter" stroke-miterlimit="10" stroke-dasharray="" stroke-dashoffset="0" font-family="none" font-weight="none" font-size="none" text-anchor="none" style="mix-blend-mode: normal"><g transform="scale(5.12,5.12)"><path d="M11,4c-1.654,0 -3,1.346 -3,3v36c0,1.654 1.346,3 3,3h18.61719c-0.366,-0.633 -0.67192,-1.301 -0.91992,-2h-17.69727c-0.551,0 -1,-0.448 -1,-1v-36c0,-0.552 0.449,-1 1,-1h28c0.551,0 1,0.448 1,1v21c0.683,0 1.348,0.06969 2,0.17969v-21.17969c0,-1.654 -1.346,-3 -3,-3zM12,8v1v9h26v-10zM14,10h22v6h-22zM24,12v2h2v-2zM28,12v2h2v-2zM32,12v2h2v-2zM13,22c-0.552,0 -1,0.447 -1,1v18c0,0.553 0.448,1 1,1h15.17969c-0.11,-0.652 -0.17969,-1.317 -0.17969,-2h-2v-4h2.69727c0.248,-0.699 0.55392,-1.367 0.91992,-2h-3.61719v-4h4v3.37109c0.565,-0.851 1.242,-1.61787 2,-2.29687v-1.07422h1.37109c0.81092,-0.53839 1.69448,-0.97498 2.62891,-1.30273c0.00057,-0.0002 0.00138,0.0002 0.00195,0c0.22094,-0.07818 0.44752,-0.14172 0.67383,-0.20703c0.10807,-0.03109 0.21301,-0.0694 0.32227,-0.09766c0.00061,-0.00016 0.00134,0.00016 0.00195,0c0.3278,-0.08453 0.66146,-0.15589 1,-0.21289v-5.17969c0,-0.553 -0.448,-1 -1,-1zM14,24h4v4h-4zM20,24h4v4h-4zM26,24h4v4h-4zM32,24h4v4h-4zM14,30h4v4h-4zM20,30h4v4h-4zM40,30c-5.5,0 -10,4.5 -10,10c0,5.5 4.5,10 10,10c5.5,0 10,-4.5 10,-10c0,-5.5 -4.5,-10 -10,-10zM40,32c4.4,0 8,3.6 8,8c0,4.4 -3.6,8 -8,8c-4.4,0 -8,-3.6 -8,-8c0,-4.4 3.6,-8 8,-8zM39.69922,33.40039v1.5c-0.9,0 -2.79883,0.69883 -2.79883,2.79883c0,3.5 4.5,2.60078 4.5,4.80078c0,0.2 -0.00078,1.19922 -1.30078,1.19922c-1.5,0 -1.5,-1.39922 -1.5,-1.69922h-2c0,3 2.6,3.30078 3,3.30078v1.39844h1.09961v-1.39844c0.4,0 2.80078,-0.30078 2.80078,-2.80078c0,-3.5 -4.5,-2.70078 -4.5,-4.80078c0,-0.2 -0.00039,-1.19883 1.09961,-1.29883c1.2,0 1.30078,1.09922 1.30078,1.69922h2c0,-2.6 -1.89961,-3.09922 -2.59961,-3.19922v-1.5zM14,36h4v4h-4zM20,36h4v4h-4z"></path></g></g></svg>