<svg xmlns="http://www.w3.org/2000/svg" xmlns:xlink="http://www.w3.org/1999/xlink" viewBox="0,0,256,256" width="50px" height="50px" fill-rule="nonzero"><g fill="#e09c2e" fill-rule="nonzero" stroke="none" stroke-width="1" stroke-linecap="butt" stroke-linejoin="miter" stroke-miterlimit="10" stroke-dasharray="" stroke-dashoffset="0" font-family="none" font-weight="none" font-size="none" text-anchor="none" style="mix-blend-mode: normal"><g transform="scale(5.12,5.12)"><path d="M32.15625,1c-1.18359,0 -2.08594,0.98828 -2.125,2.15625c-1.58594,0.26172 -2.90234,1.08203 -3.875,2.1875c-0.90625,-0.61328 -1.96875,-1.05859 -3.1875,-1.21875c-0.05078,-1.15234 -0.95312,-2.125 -2.125,-2.125h-1.6875c-1.17187,0 -2.07422,0.97266 -2.125,2.125c-2.33594,0.30078 -4.14062,1.58594 -5.25,3.25c-1.17578,1.76172 -1.64844,3.83984 -1.71875,5.6875c-0.15625,0.04297 -0.26953,0.04297 -0.53125,0.1875c-0.42187,0.23047 -0.86328,0.66016 -1.125,1.28125c-0.26172,0.62109 -0.40625,1.40234 -0.40625,2.46875v0.78125l0.75,0.1875c0,0 0.76172,0.16016 1.875,0.34375c0.07031,0.32813 0.13672,0.67188 0.21875,1c-0.46094,0.55859 -0.82031,1.30078 -0.6875,2.40625c0.14844,1.23047 0.48828,2.10547 0.96875,2.71875c0.26563,0.33594 0.61328,0.36719 0.9375,0.53125c0.17578,1.04688 0.46875,2.09375 0.90625,2.96875c0.25,0.50391 0.53516,0.96875 0.8125,1.34375c0.125,0.16797 0.30469,0.26563 0.4375,0.40625c0.00781,1.23438 0.01172,2.26172 -0.09375,3.5625c-0.32422,0.78516 -1.08984,1.41797 -2.3125,2.03125c-1.26172,0.63281 -2.90234,1.21875 -4.5625,1.9375c-1.66016,0.71875 -3.33594,1.59375 -4.6875,2.96875c-1.35156,1.375 -2.32031,3.26172 -2.46875,5.75l-0.0625,1.0625h40.03125l-0.0625,-1.0625c-0.09375,-1.54297 -0.50781,-2.83594 -1.125,-3.9375h11.09375l-0.0625,-1.0625c-0.12891,-2.125 -0.94922,-3.78125 -2.09375,-5c-1.14453,-1.21875 -2.57422,-2.02734 -3.96875,-2.6875c-1.39453,-0.66016 -2.76562,-1.1875 -3.8125,-1.75c-1.01172,-0.54297 -1.61719,-1.07031 -1.875,-1.6875c-0.08203,-1.05078 -0.10156,-1.90625 -0.09375,-2.90625c0.09766,-0.10937 0.25391,-0.1875 0.34375,-0.3125c0.23828,-0.32812 0.47656,-0.72656 0.6875,-1.15625c0.35547,-0.73047 0.59766,-1.59375 0.75,-2.46875c0.26172,-0.14453 0.53906,-0.16797 0.75,-0.4375c0.42969,-0.54687 0.71484,-1.28906 0.84375,-2.34375v-0.03125c0.10938,-0.91406 -0.1875,-1.52734 -0.5625,-2.03125c0.16406,-0.48437 0.35938,-0.95703 0.5,-1.78125c1.10938,-0.19141 1.875,-0.375 1.875,-0.375l0.75,-0.1875v-0.78125c0,-0.98437 -0.12891,-1.69922 -0.375,-2.28125c-0.24609,-0.58203 -0.66016,-1.00391 -1.0625,-1.21875c-0.22656,-0.12109 -0.29297,-0.11719 -0.4375,-0.15625c-0.07812,-1.69141 -0.54687,-3.57422 -1.59375,-5.1875c-0.98437,-1.51562 -2.55469,-2.71094 -4.5625,-3.03125c-0.05078,-1.15234 -0.95312,-2.125 -2.125,-2.125zM32.15625,3h1.6875c0.01563,0 0.15625,0.0625 0.15625,0.21875v0.59375c0,0.03125 0,0.0625 0,0.09375v0.09375c-0.00781,0.07422 -0.00781,0.14453 0,0.21875v5.78125c-0.00391,0.35938 0.18359,0.69531 0.49609,0.87891c0.3125,0.17969 0.69531,0.17969 1.00781,0c0.3125,-0.18359 0.5,-0.51953 0.49609,-0.87891v-4.71875c1.19922,0.29297 2.15625,0.91016 2.84375,1.96875c0.87891,1.35547 1.34375,3.16406 1.34375,4.5625c0,0.28906 0.10938,0.69531 0.34375,0.9375c0.23438,0.24219 0.47266,0.32813 0.625,0.375c0.30078,0.09766 0.41797,0.09766 0.46875,0.125c0.05078,0.02734 0.0625,0.02734 0.15625,0.25c0.04297,0.10156 0.05469,0.47266 0.09375,0.6875c-0.98828,0.22656 -3.76562,0.8125 -8.875,0.8125h-1.21875c-0.04687,-0.16406 -0.125,-0.32031 -0.1875,-0.46875c-0.26172,-0.625 -0.69922,-1.08594 -1.125,-1.3125c-0.26562,-0.14062 -0.37109,-0.14453 -0.53125,-0.1875c-0.07812,-1.84375 -0.57812,-3.90625 -1.75,-5.65625c-0.16406,-0.24219 -0.33984,-0.46094 -0.53125,-0.6875c0.64063,-0.70312 1.4375,-1.16797 2.34375,-1.40625v4.71875c-0.00391,0.35938 0.18359,0.69531 0.49609,0.87891c0.3125,0.17969 0.69531,0.17969 1.00781,0c0.3125,-0.18359 0.5,-0.51953 0.49609,-0.87891v-5.8125c0.02734,-0.13281 0.02734,-0.27344 0,-0.40625v-0.5625c0,-0.15625 0.14063,-0.21875 0.15625,-0.21875zM19.15625,4h1.6875c0.01563,0 0.15625,0.0625 0.15625,0.21875v0.59375c0,0.03125 0,0.0625 0,0.09375v0.09375c-0.00781,0.07422 -0.00781,0.14453 0,0.21875v5.78125c-0.00391,0.35938 0.18359,0.69531 0.49609,0.87891c0.3125,0.17969 0.69531,0.17969 1.00781,0c0.3125,-0.18359 0.5,-0.51953 0.49609,-0.87891v-4.75c1.53125,0.28906 2.72656,1.04688 3.53125,2.25c0.99219,1.47656 1.46875,3.43359 1.46875,5c0,0.29688 0.13672,0.69141 0.375,0.9375c0.23828,0.24609 0.46484,0.32422 0.625,0.375c0.32031,0.10547 0.45703,0.14844 0.53125,0.1875c0.07422,0.03906 0.13672,0.04688 0.25,0.3125c0.05859,0.13672 0.07813,0.57813 0.125,0.875c-0.24609,0.05469 -0.60937,0.13281 -1.125,0.21875c-0.08203,-0.01172 -0.16797,-0.01172 -0.25,0c-0.09766,0.00781 -0.19141,0.02734 -0.28125,0.0625c-1.62109,0.24609 -4.24609,0.53125 -8.25,0.53125c-3.81641,0 -6.35547,-0.23047 -8,-0.46875c-0.23047,-0.14844 -0.51562,-0.19141 -0.78125,-0.125c-0.51562,-0.08594 -0.87891,-0.16406 -1.125,-0.21875c0.04297,-0.29297 0.06641,-0.73828 0.125,-0.875c0.11328,-0.26172 0.17188,-0.26953 0.25,-0.3125c0.07813,-0.04297 0.21484,-0.07812 0.53125,-0.1875c0.16016,-0.05469 0.39063,-0.12891 0.625,-0.375c0.23438,-0.24609 0.375,-0.64062 0.375,-0.9375c0,-1.56641 0.48438,-3.52344 1.46875,-5c0.80469,-1.20703 1.98438,-1.96094 3.53125,-2.25v4.75c-0.00391,0.35938 0.18359,0.69531 0.49609,0.87891c0.3125,0.17969 0.69531,0.17969 1.00781,0c0.3125,-0.18359 0.5,-0.51953 0.49609,-0.87891v-5.8125c0.02734,-0.13281 0.02734,-0.27344 0,-0.40625v-0.5625c0,-0.15625 0.14063,-0.21875 0.15625,-0.21875zM39.25,16.65625c-0.11719,0.5 -0.24219,0.84375 -0.40625,1.34375l-0.25,0.75l0.6875,0.40625c-0.08984,-0.05469 0.26563,0.13672 0.1875,0.78125c-0.09766,0.80859 -0.30859,1.21094 -0.4375,1.375c-0.12891,0.16406 -0.16016,0.12891 -0.125,0.125l-0.84375,0.0625l-0.0625,0.8125c-0.07422,0.70313 -0.38672,1.56641 -0.71875,2.25c-0.16797,0.33984 -0.32031,0.64063 -0.46875,0.84375c-0.08984,0.12109 -0.15234,0.21094 -0.1875,0.25h-0.03125c-0.00391,0.00391 0,0.03125 0,0.03125l-0.53125,0.25v0.59375c0,1.21484 -0.03516,2.23438 0.09375,3.65625v0.125l0.0625,0.125c0.5,1.33984 1.62109,2.18359 2.84375,2.84375c1.22266,0.66016 2.63672,1.16406 3.9375,1.78125c1.30078,0.61719 2.47266,1.32422 3.34375,2.25c0.65625,0.69922 1.09766,1.60156 1.34375,2.6875h-10.34375c-1.32031,-1.26953 -2.94141,-2.09766 -4.53125,-2.78125c-1.66406,-0.71875 -3.29687,-1.30469 -4.5625,-1.9375c-1.21484,-0.60937 -1.98047,-1.22656 -2.3125,-2c-0.10937,-1.31641 -0.10156,-2.34766 -0.09375,-3.59375c0.13281,-0.14453 0.3125,-0.23828 0.4375,-0.40625c0.27344,-0.37891 0.53516,-0.84375 0.78125,-1.34375c0.42578,-0.875 0.73438,-1.92578 0.90625,-2.96875c0.3125,-0.16406 0.64844,-0.20312 0.90625,-0.53125c0.48047,-0.61328 0.82031,-1.48828 0.96875,-2.71875c0.13281,-1.09375 -0.23437,-1.81641 -0.6875,-2.375c0.10156,-0.3125 0.20703,-0.63672 0.3125,-1.03125c1.05469,-0.17578 1.78125,-0.34375 1.78125,-0.34375l0.75,-0.1875v-0.78125h1c2.50781,0 4.59766,-0.14844 6.25,-0.34375zM12.71875,18.625c1.85547,0.21094 4.28906,0.375 7.28125,0.375c3.00781,0 5.45313,-0.16016 7.3125,-0.375c-0.05859,0.19141 -0.11719,0.38672 -0.1875,0.59375l-0.25,0.78125l0.6875,0.40625c-0.04297,-0.02734 0.38281,0.26172 0.28125,1.09375c-0.11719,0.98047 -0.35156,1.48828 -0.53125,1.71875c-0.17969,0.23047 -0.27344,0.21875 -0.28125,0.21875l-0.84375,0.0625l-0.09375,0.8125c-0.09375,0.86328 -0.44141,1.92188 -0.84375,2.75c-0.20312,0.41406 -0.41016,0.77734 -0.59375,1.03125c-0.18359,0.25391 -0.375,0.39453 -0.28125,0.34375l-0.53125,0.28125v0.59375c0,1.44922 -0.05859,2.63672 0.09375,4.3125v0.125l0.0625,0.125c0.57031,1.53516 1.89063,2.49219 3.34375,3.21875c1.45313,0.72656 3.12109,1.26172 4.6875,1.9375c1.56641,0.67578 3,1.48438 4.0625,2.5625c0.84375,0.85547 1.375,1.98828 1.65625,3.40625h-35.40625c0.28125,-1.41797 0.78516,-2.55078 1.625,-3.40625c1.05859,-1.07812 2.53516,-1.88672 4.09375,-2.5625c1.55859,-0.67578 3.20703,-1.21094 4.65625,-1.9375c1.44922,-0.72656 2.77344,-1.68359 3.34375,-3.21875l0.0625,-0.25c0.15234,-1.67578 0.09375,-2.86328 0.09375,-4.3125v-0.59375l-0.53125,-0.28125c0.08984,0.04688 -0.125,-0.08984 -0.3125,-0.34375c-0.1875,-0.25391 -0.41797,-0.61719 -0.625,-1.03125c-0.41406,-0.82812 -0.75391,-1.89453 -0.84375,-2.75l-0.09375,-0.8125l-0.84375,-0.0625c-0.00781,0 -0.10156,0.01172 -0.28125,-0.21875c-0.17969,-0.23047 -0.41406,-0.73828 -0.53125,-1.71875c-0.09766,-0.83203 0.32422,-1.12109 0.28125,-1.09375l0.65625,-0.40625l-0.1875,-0.71875c-0.07031,-0.26953 -0.13281,-0.45312 -0.1875,-0.65625z"></path></g></g></svg>