<svg xmlns="http://www.w3.org/2000/svg" viewBox="0 0 340.78 222.75"><defs><style>.cls-1{fill:#0a2e45;}.cls-2{fill:#e09c2e;}.cls-3{fill:#f6f4ef;}</style></defs><g id="Layer_2" data-name="Layer 2"><g id="Layer_1-2" data-name="Layer 1"><path class="cls-1" d="M66.6,70.71a7,7,0,0,1-9.84-1.54L54.15,65.6a7.09,7.09,0,0,0-9.27-2.13c-.16.1-.32.2-.47.31a7.66,7.66,0,0,0-2.89,8.16l.09.31a7.13,7.13,0,0,1-2.5,8l-8.4,6.13a9.38,9.38,0,0,1-13.09-2L1.8,62.65a9.38,9.38,0,0,1,2-13.09l8.4-6.13a7.05,7.05,0,0,1,8.46.12l.19.12a7.67,7.67,0,0,0,11.5-8.6l0-.14a7,7,0,0,1,2.5-8L57.13,10.68c28.25-20.62,56-5.15,57.16-4.48a7,7,0,0,1-4,13.13c-.05,0-9.21-.46-16.5,4.85a21,21,0,0,0-4.09,4c-4.43,5.67-2.64,11.15-.31,14.8l1.15,1.58A7,7,0,0,1,89,54.36Z"/><path class="cls-2" d="M61.28,16.37,39,32.62c.06.16.1.32.15.49a14.71,14.71,0,0,1-22,16.5,8.46,8.46,0,0,1-.73-.49L8,55.25a2.33,2.33,0,0,0-.5,3.25L23.31,80.18a2.32,2.32,0,0,0,3.25.51L35,74.56c-.09-.26-.17-.55-.25-.83a14.74,14.74,0,0,1,5.55-15.64l.87-.59c6.2-3.88,14.4-2,18.71,3.94L62.45,65,84.86,48.67l-1.27-1.74c-2.49-3.8-7.1-13.31.56-23.12,9.9-12.68,26.64-11.5,26.64-11.5S86.17-1.8,61.28,16.37Z"/><path class="cls-1" d="M138.92,161.8a7,7,0,0,1-9.91-1.63L66,71a7,7,0,0,1,1.6-9.75l12-8.73a7,7,0,0,1,9.78,1.45L155,141.19a7.05,7.05,0,0,1-1.47,9.93Z"/><polygon class="cls-2" points="149.4 145.43 134.77 156.11 71.71 66.9 83.67 58.17 149.4 145.43"/><rect class="cls-3" x="112.28" y="28.18" width="146.94" height="188.56"/><path class="cls-1" d="M265.22,222.75H106.28V22.18H265.22Zm-146.94-12H253.22V34.18H118.28Z"/><rect class="cls-1" x="133.25" y="117.47" width="81.62" height="10"/><rect class="cls-1" x="133.25" y="144.5" width="60.21" height="10"/><path class="cls-2" d="M119.5,11.9v.68a5.49,5.49,0,0,1-.24-.68Z"/><path class="cls-2" d="M119.5,37.26v.68h-.24A6.13,6.13,0,0,1,119.5,37.26Z"/><path class="cls-2" d="M142.4,11.9c0,.14-.09.26-.13.4v-.4Z"/><path class="cls-2" d="M119.5,11.9v.68a5.49,5.49,0,0,1-.24-.68Z"/><path class="cls-2" d="M142.4,11.9c0,.14-.09.26-.13.4v-.4Z"/><path class="cls-2" d="M119.5,37.26v.68h-.24A6.13,6.13,0,0,1,119.5,37.26Z"/><polygon class="cls-1" points="180.15 102.13 160.18 76.17 168.11 70.07 181.32 87.25 219.33 51.26 226.21 58.52 180.15 102.13"/><path class="cls-1" d="M250.37,125.24l-6.06-5.2-6.06-5.21-30.66,25s-1.59,15.56-7.06,28.41a1.92,1.92,0,0,0,2.78,2.38c11.86-7.35,27-11.28,27-11.28Zm-33.6,29.18L206,164.65l8.48-12.18a6.1,6.1,0,1,1,2.28,1.95Z"/><path class="cls-1" d="M292.72,98.12h0a1.54,1.54,0,0,1-.17-2.18L321,62.81a13.87,13.87,0,0,0,3.3-10.08L323,35.11l5.57-.42,1.34,17.62a19.45,19.45,0,0,1-4.63,14.14L298.42,97.69A4,4,0,0,1,292.72,98.12Z"/><path class="cls-2" d="M279.85,3.09h5.79a11,11,0,0,1,11,11v129a4.39,4.39,0,0,1-4.39,4.39h-19a4.39,4.39,0,0,1-4.39-4.39v-129a11,11,0,0,1,11-11Z" transform="translate(117.25 -166.02) rotate(40.65)"/><rect class="cls-1" x="312.93" y="25.95" width="7.79" height="19.26" transform="translate(83.45 252.79) rotate(-49.35)"/><rect class="cls-1" x="242.34" y="108.18" width="7.79" height="19.26" transform="translate(-3.55 227.89) rotate(-49.35)"/><path class="cls-1" d="M245.77,142.27a9.34,9.34,0,0,1-6.1-2.26h0l-14.39-12.36a9.38,9.38,0,0,1-1-13.24l84-97.87a16,16,0,0,1,22.53-1.71l4.4,3.77a16,16,0,0,1,1.71,22.53l-84,97.87a9.33,9.33,0,0,1-6.41,3.25Zm-13.52-21.81L245.72,132l83.62-97.4a6,6,0,0,0-.64-8.44l-4.39-3.77a6,6,0,0,0-8.44.65Z"/><path class="cls-1" d="M145.47,198.58a42.84,42.84,0,0,0,16.17-16.73,36.16,36.16,0,0,0,4.09-11.42c.64-4.36-.9-9.68-5.82-10.68a2.56,2.56,0,0,0-3.08,1.74,50.1,50.1,0,0,0,.6,25.07,50.82,50.82,0,0,0,2.17,6,10.82,10.82,0,0,0,3.26,4.71,4.74,4.74,0,0,0,6-.13,13.73,13.73,0,0,0,3.17-4.6,21.86,21.86,0,0,0,1.75-13.33c-.43-2.46-4.26-2.29-4.82,0-.84,3.5-.3,10.74,4.56,11.05,2.3.15,3.84-1.55,5.08-3.26a22.87,22.87,0,0,0,3-5.87l-4.57.6a26.74,26.74,0,0,0,4.57,5.49c1.9,1.71,4.31,3.6,6.9,2.05,2-1.19,2.92-4,3.36-6.13a16.85,16.85,0,0,0-.17-7.64,2.54,2.54,0,0,0-2.41-1.83,2.61,2.61,0,0,0-2.41,1.83c-1.54,3.77.49,8,3.43,10.41a28.36,28.36,0,0,0,5.08,3.23,8.9,8.9,0,0,0,6,1.3c4-.85,5.82-5.2,5.64-8.92a56.35,56.35,0,0,0-1-6.72l-1.16-6.91a2.51,2.51,0,0,0-3.07-1.74,2.56,2.56,0,0,0-1.75,3.07c.57,3.44,1.17,6.87,1.72,10.3.27,1.64.83,5.12-1.25,6-.93.38-2-.34-2.84-.76a30.07,30.07,0,0,1-3.74-2.24c-1.79-1.36-3.21-3.4-2.29-5.66h-4.82a11.4,11.4,0,0,1,.28,4.39,12.11,12.11,0,0,1-.55,2.23c-.06.19-.74,1.57-.74,1.57s.86-.12.85-.1a6.08,6.08,0,0,1-.78-.55,22.9,22.9,0,0,1-1.71-1.56,20.94,20.94,0,0,1-2.88-3.61,2.53,2.53,0,0,0-4.56.6,17.48,17.48,0,0,1-1.43,3.07,16.55,16.55,0,0,1-.92,1.43,8.87,8.87,0,0,0-.82,1c0-.08.85.37.87.25s-.2-.28-.2-.29c-.13-.45-.37-.87-.49-1.33a6.91,6.91,0,0,1,0-3.38H169a16.14,16.14,0,0,1-1.8,10.55,7,7,0,0,1-1.58,2.3c-.06,0,.26-.08.31-.05a2.59,2.59,0,0,1-.57-.53,16.76,16.76,0,0,1-2.3-5,44.9,44.9,0,0,1-1.39-24.92l-3.08,1.75c3.45.7,2.26,5.49,1.59,7.79a36.7,36.7,0,0,1-3.79,8.63A37.88,37.88,0,0,1,143,194.27c-2.78,1.61-.27,5.94,2.52,4.31Z"/></g></g></svg>