<svg xmlns="http://www.w3.org/2000/svg" xmlns:xlink="http://www.w3.org/1999/xlink" viewBox="0,0,256,256" width="80px" height="80px" fill-rule="nonzero"><g fill="#e09c2e" fill-rule="nonzero" stroke="none" stroke-width="1" stroke-linecap="butt" stroke-linejoin="miter" stroke-miterlimit="10" stroke-dasharray="" stroke-dashoffset="0" font-family="none" font-weight="none" font-size="none" text-anchor="none" style="mix-blend-mode: normal"><g transform="scale(3.2,3.2)"><path d="M31.72656,9c-4.84102,0 -9.19093,2.64937 -12.34766,5.22461c-3.15673,2.57524 -5.16797,5.16016 -5.16797,5.16016l-0.90234,1.1582l1.4082,0.41602c0,0 0.55018,0.15021 1.20313,0.82031c0.65295,0.6701 1.35352,1.80878 1.35352,3.97266c0,2.80042 0.42815,5.06002 0.64258,6.01758c-0.55681,0.50907 -0.91602,1.22555 -0.91602,2.03125c0,0.64986 0.19361,1.20166 0.35352,1.74609c0.07995,0.27222 0.15686,0.52648 0.20898,0.71875c0.05213,0.19227 0.0625,0.37823 0.0625,0.23438c0,1.36079 1.14049,2.42114 2.48242,2.46875c0.18591,3.87693 2.05163,7.29855 4.89258,9.55273v3.73047c-1.44333,0.43695 -4.90363,1.55459 -8.42773,3.21875c-2.29792,1.08513 -4.6118,2.39309 -6.41211,3.94336c-1.80031,1.55027 -3.16016,3.40737 -3.16016,5.58594v6h42.63477c2.60308,5.31887 8.05564,9 14.36523,9c8.822,0 16,-7.178 16,-16c0,-8.822 -7.178,-16 -16,-16c-2.591,0 -5.03203,0.63234 -7.19922,1.73047v-3.01953c2.53698,-2.03503 4.20436,-5.10253 4.38867,-8.57617c1.21526,-0.09236 2.24609,-1.039 2.24609,-2.28516c0,0.15465 0.0064,-0.01495 0.05273,-0.18555c0.0463,-0.1706 0.11724,-0.39697 0.18945,-0.64258c0.14442,-0.49122 0.32031,-0.98767 0.32031,-1.60156c0,-0.74901 -0.32929,-1.41536 -0.84375,-1.89062c0.11972,-0.67427 0.8457,-4.82616 0.8457,-7.83008c0,-3.25762 -1.22324,-5.60856 -2.87695,-7.0625c-1.50396,-1.32228 -3.2772,-1.85305 -4.83984,-1.95117c-0.20181,-0.33963 -0.44378,-0.87664 -1.46484,-1.67383c-1.30952,-1.0224 -3.41728,-2.01172 -6.46484,-2.01172c-2.69655,0 -5.22205,0.92126 -7.42383,2.15234c-0.10752,-0.01125 -0.22025,-0.03733 -0.32617,-0.04492c-0.27218,-0.43045 -0.75545,-1.1108 -1.76172,-1.89648c-1.43753,-1.12241 -3.75266,-2.21094 -7.11523,-2.21094zM31.72656,11c2.93943,0 4.76079,0.91147 5.88477,1.78906c1.12398,0.87759 1.49219,1.65234 1.49219,1.65234l0.27539,0.55859h0.62109c1.33251,0 3.12356,0.50921 4.52148,1.73828c1.39793,1.22907 2.47852,3.15135 2.47852,6.26172c0,2.79085 -0.66574,6.86115 -0.85742,8.00195c-0.00599,-0.00004 -0.01158,-0.00195 -0.01758,-0.00195c-0.08408,0 -0.06941,0.02074 -0.125,0.02734v-3.02734c0,-3.42188 -1.39859,-5.72427 -2.80469,-7.08594c-1.40609,-1.36166 -2.87695,-1.86133 -2.87695,-1.86133l-0.57227,-0.19336l-0.4375,0.41797c0,0 -0.62728,0.61732 -2.14844,1.3125c-1.52116,0.69517 -3.8702,1.41016 -7.16016,1.41016c-1.79961,0 -4.17337,0.63665 -6.23047,2.07422c-2.05168,1.43378 -3.75663,3.77875 -3.76562,6.95508c-0.05662,-0.007 -0.04204,-0.0293 -0.12891,-0.0293c-0.02399,0 -0.04644,0.00722 -0.07031,0.00781c-0.20381,-0.9665 -0.53125,-2.84893 -0.53125,-5.25586c0,-2.62012 -0.93587,-4.35729 -1.91992,-5.36719c-0.41492,-0.42582 -0.51101,-0.35545 -0.87305,-0.56641c0.69025,-0.81431 1.97496,-2.25711 4.16406,-4.04297c2.97227,-2.42476 6.98705,-4.77539 11.08203,-4.77539zM48.35352,13c2.62443,0 4.2384,0.81029 5.23438,1.58789c0.99598,0.7776 1.31445,1.45508 1.31445,1.45508l0.27539,0.55664h0.62305c1.17505,0 2.76467,0.45125 4.00195,1.53906c1.23729,1.08781 2.19727,2.78516 2.19727,5.56055c0,2.2654 -0.47024,5.30255 -0.70117,6.72266v-2.22266c0,-3.1059 -1.27361,-5.20857 -2.55469,-6.44922c-1.28107,-1.24065 -2.62695,-1.69727 -2.62695,-1.69727l-0.57422,-0.19336l-0.4375,0.41797c0,0 -0.46496,0.46181 -1.62891,1.0332c-1.0008,0.4913 -2.50446,1.00358 -4.49805,1.24219c-0.10917,-3.35427 -1.4005,-5.7899 -3.13672,-7.31641c-0.6226,-0.5474 -1.28813,-0.96739 -1.9668,-1.28711c1.44212,-0.58326 2.95359,-0.94922 4.47852,-0.94922zM39.99805,21.15625c0.24291,0.09402 0.87576,0.2919 1.80664,1.19336c1.0939,1.05934 2.19531,2.75627 2.19531,5.65039v6.30469l1.50586,-0.88086c0.25741,-0.15068 0.4948,-0.28385 0.66211,-0.36914c0.02119,-0.0108 0.02624,-0.01236 0.04492,-0.02148c0.45971,0.0464 0.78711,0.36633 0.78711,0.76758c0,0.07514 -0.11889,0.66208 -0.27148,1.18164c-0.0763,0.25978 -0.15564,0.51978 -0.2207,0.75977c-0.06506,0.23998 -0.13281,0.40445 -0.13281,0.75781c0,0.26439 -0.21862,0.5 -0.5625,0.5h-1.8125v1.36719c0,5.42218 -3.91099,9.90188 -9.05859,10.82031l-0.2832,0.04883l-0.21484,0.19531c-0.39158,0.35598 -0.88534,0.56836 -1.44336,0.56836c-0.55802,0 -1.05196,-0.21184 -1.44336,-0.56836l-0.21289,-0.19531l-0.28516,-0.05078c-5.14747,-0.91749 -9.05859,-5.39618 -9.05859,-10.81836v-1.36719h-1.8125c-0.34228,0 -0.5625,-0.23561 -0.5625,-0.5c0,-0.35336 -0.06775,-0.51783 -0.13281,-0.75781c-0.06506,-0.23998 -0.1444,-0.49998 -0.2207,-0.75977c-0.1526,-0.51957 -0.27148,-1.1065 -0.27148,-1.18164c0,-0.40125 0.3274,-0.72117 0.78711,-0.76758c0.01868,0.0091 0.02373,0.01068 0.04492,0.02148c0.16731,0.08529 0.4047,0.21846 0.66211,0.36914l1.50586,0.88086v-3.25195c0,-2.49586 1.24317,-4.17021 2.91406,-5.33789c1.6709,-1.16768 3.79755,-1.71484 5.08594,-1.71484c3.58104,0 6.2311,-0.78502 7.99219,-1.58984c1.30868,-0.59807 1.65317,-0.96395 2.00586,-1.25391zM55.80859,22.16602c0.2412,0.09598 0.74484,0.24854 1.54297,1.02148c0.96893,0.93835 1.94727,2.43362 1.94727,5.01172v5.84961l1.50391,-0.88086c0.22003,-0.12881 0.41799,-0.23891 0.56445,-0.31445c0.35766,0.0425 0.63086,0.26161 0.63086,0.56641c0,0.03911 -0.10315,0.57083 -0.24023,1.03711c-0.06854,0.23314 -0.13996,0.46525 -0.19922,0.68359c-0.05926,0.21834 -0.12305,0.36584 -0.12305,0.70898c0,0.18389 -0.14748,0.34961 -0.40625,0.34961h-1.73047v1.33203c0,4.83104 -3.48492,8.82121 -8.07031,9.63867l-0.28516,0.05078l-0.21289,0.19336c-0.33367,0.30388 -0.75639,0.48633 -1.23242,0.48633c-0.47604,0 -0.89675,-0.18123 -1.23242,-0.48633l-0.21289,-0.19336l-0.2832,-0.05078c-1.47057,-0.26233 -2.81468,-0.86929 -3.98047,-1.70898c1.23014,-1.8797 1.9887,-4.09788 2.10352,-6.49219c1.34233,-0.04761 2.48242,-1.10796 2.48242,-2.46875c0,0.14386 0.01037,-0.04211 0.0625,-0.23437c0.05213,-0.19227 0.12903,-0.44653 0.20898,-0.71875c0.1599,-0.54443 0.35352,-1.09624 0.35352,-1.74609c0,-0.81856 -0.37112,-1.54443 -0.94336,-2.05469c0.15484,-0.88697 0.71292,-4.22692 0.88672,-7.1582c2.37505,-0.24737 4.1768,-0.87408 5.41602,-1.48242c0.93812,-0.46053 1.13061,-0.68328 1.44922,-0.93945zM27.5,33c-0.82843,0 -1.5,0.67157 -1.5,1.5c0,0.82843 0.67157,1.5 1.5,1.5c0.82843,0 1.5,-0.67157 1.5,-1.5c0,-0.82843 -0.67157,-1.5 -1.5,-1.5zM38.5,33c-0.82843,0 -1.5,0.67157 -1.5,1.5c0,0.82843 0.67157,1.5 1.5,1.5c0.82843,0 1.5,-0.67157 1.5,-1.5c0,-0.82843 -0.67157,-1.5 -1.5,-1.5zM54.5,33c-0.82843,0 -1.5,0.67157 -1.5,1.5c0,0.82843 0.67157,1.5 1.5,1.5c0.82843,0 1.5,-0.67157 1.5,-1.5c0,-0.82843 -0.67157,-1.5 -1.5,-1.5zM42.55859,47.03711c1.35919,0.98459 2.93144,1.69116 4.64063,2.03125c0.64123,0.492 1.4211,0.83203 2.29883,0.83203c0.89281,0 1.69141,-0.34774 2.33789,-0.85547c1.04944,-0.21294 2.04131,-0.57048 2.96484,-1.04102v2.92578c-1.84791,1.30459 -3.40102,2.99173 -4.55859,4.94336c-3.86549,-1.92229 -7.76405,-3.17566 -9.24219,-3.61914v-3.73047c0.56392,-0.44765 1.07703,-0.95227 1.55859,-1.48633zM27,49.82227c1.06781,0.56239 2.21994,0.99013 3.44336,1.23633c0.70388,0.56182 1.57871,0.94141 2.55664,0.94141c0.97371,0 1.84262,-0.37909 2.54492,-0.93555c1.22765,-0.24601 2.38394,-0.6739 3.45508,-1.23828v5.85938c-0.1228,0.24495 -1.70496,3.31445 -6,3.31445c-4.29504,0 -5.8772,-3.06951 -6,-3.31445zM64,50c7.72,0 14,6.28 14,14c0,7.72 -6.28,14 -14,14c-5.89399,0 -10.9386,-3.66486 -13,-8.83203v-0.16797h-0.06055c-0.59748,-1.55527 -0.93945,-3.23685 -0.93945,-5c0,-7.72 6.28,-14 14,-14zM25,54.35352v1.88281l0.10547,0.21094c0,0 2.3612,4.55273 7.89453,4.55273c5.53333,0 7.89453,-4.55273 7.89453,-4.55273l0.10547,-0.21094v-1.88281c1.74704,0.55068 5.08228,1.69873 8.31836,3.30273c-0.84438,1.94661 -1.31836,4.09041 -1.31836,6.34375c0,1.74723 0.29238,3.42474 0.8125,5h-39.8125v-4c0,-1.32143 0.89015,-2.71433 2.46484,-4.07031c1.57469,-1.35598 3.76081,-2.61052 5.96289,-3.65039c3.02552,-1.42872 5.96525,-2.4204 7.57227,-2.92578zM63.39063,55.82031v1.30664c-2.668,0.227 -4.27734,1.69278 -4.27734,3.92578c0,1.892 1.18414,3.17975 3.36914,3.71875l0.9082,0.2168v4.03125c-1.315,-0.142 -2.17672,-0.89898 -2.26172,-1.95898h-2.30859c0.009,2.232 1.74936,3.72648 4.56836,3.89648v1.22266h1.30664v-1.23047c2.848,-0.236 4.48438,-1.70283 4.48438,-4.04883c0.001,-1.997 -1.14388,-3.21739 -3.54688,-3.77539l-0.9375,-0.19922v-3.83008c1.135,0.151 1.92903,0.92639 1.95703,1.90039h2.26172c-0.047,-2.129 -1.69275,-3.64314 -4.21875,-3.86914v-1.30664zM63.39063,59.08398v3.56641c-1.268,-0.265 -1.93945,-0.88887 -1.93945,-1.79687c0,-0.966 0.81445,-1.70253 1.93945,-1.76953zM13,65c-0.55228,0 -1,0.44772 -1,1c0,0.55228 0.44772,1 1,1c0.55228,0 1,-0.44772 1,-1c0,-0.55228 -0.44772,-1 -1,-1zM17,65c-0.55228,0 -1,0.44772 -1,1c0,0.55228 0.44772,1 1,1c0.55228,0 1,-0.44772 1,-1c0,-0.55228 -0.44772,-1 -1,-1zM21,65c-0.55228,0 -1,0.44772 -1,1c0,0.55228 0.44772,1 1,1c0.55228,0 1,-0.44772 1,-1c0,-0.55228 -0.44772,-1 -1,-1zM25,65c-0.55228,0 -1,0.44772 -1,1c0,0.55228 0.44772,1 1,1c0.55228,0 1,-0.44772 1,-1c0,-0.55228 -0.44772,-1 -1,-1zM29,65c-0.55228,0 -1,0.44772 -1,1c0,0.55228 0.44772,1 1,1c0.55228,0 1,-0.44772 1,-1c0,-0.55228 -0.44772,-1 -1,-1zM33,65c-0.55228,0 -1,0.44772 -1,1c0,0.55228 0.44772,1 1,1c0.55228,0 1,-0.44772 1,-1c0,-0.55228 -0.44772,-1 -1,-1zM37,65c-0.55228,0 -1,0.44772 -1,1c0,0.55228 0.44772,1 1,1c0.55228,0 1,-0.44772 1,-1c0,-0.55228 -0.44772,-1 -1,-1zM41,65c-0.55228,0 -1,0.44772 -1,1c0,0.55228 0.44772,1 1,1c0.55228,0 1,-0.44772 1,-1c0,-0.55228 -0.44772,-1 -1,-1zM45,65c-0.55228,0 -1,0.44772 -1,1c0,0.55228 0.44772,1 1,1c0.55228,0 1,-0.44772 1,-1c0,-0.55228 -0.44772,-1 -1,-1zM64.69531,65.23438c1.495,0.293 2.17578,0.89716 2.17578,1.91016c0,1.117 -0.79378,1.80758 -2.17578,1.89258z"></path></g></g></svg>