<svg xmlns="http://www.w3.org/2000/svg" xmlns:xlink="http://www.w3.org/1999/xlink" viewBox="0,0,256,256" width="66px" height="66px" fill-rule="nonzero"><g fill="#fc443c" fill-rule="nonzero" stroke="none" stroke-width="1" stroke-linecap="butt" stroke-linejoin="miter" stroke-miterlimit="10" stroke-dasharray="" stroke-dashoffset="0" font-family="none" font-weight="none" font-size="none" text-anchor="none" style="mix-blend-mode: normal"><g transform="scale(3.87879,3.87879)"><path d="M15.60938,2.86914c-4.62,0 -8.37891,3.78141 -8.37891,8.44141v43.38867c0,4.65 3.75891,8.44141 8.37891,8.44141h34.78125c4.62,0 8.37891,-3.78141 8.37891,-8.44141v-37.17969c0.01,-0.02 -0.00977,-0.04031 -0.00977,-0.07031c-0.01,-0.11 -0.03055,-0.20859 -0.06055,-0.30859c-0.01,-0.04 -0.01906,-0.08133 -0.03906,-0.11133c-0.06,-0.13 -0.13047,-0.24961 -0.23047,-0.34961l-13.36914,-13.45898c-0.1,-0.1 -0.21961,-0.18047 -0.34961,-0.23047c-0.04,-0.02 -0.08109,-0.03102 -0.12109,-0.04102c-0.1,-0.03 -0.20078,-0.04859 -0.30078,-0.05859c-0.03,0 -0.04812,-0.02148 -0.07812,-0.02148zM15.60938,5.2793h27.40039v8.63086c0,2.66 2.15102,4.82031 4.79102,4.82031h8.58008v35.96875c0,3.32 -2.69023,6.02148 -5.99023,6.02148h-34.78125c-3.3,0 -5.99023,-2.70125 -5.99023,-6.03125v-43.37891c0,-3.32 2.69023,-6.03125 5.99023,-6.03125zM45.40039,6.98047l9.28906,9.33984h-6.88867c-1.32,0 -2.40039,-1.08016 -2.40039,-2.41016zM34.55078,11.63086c-0.66,0 -1.20117,0.53899 -1.20117,1.20899v16.55078h-2.32031v-11.82031c0,-0.67 -0.53922,-1.21094 -1.19922,-1.21094h-5.21094c-0.66,0 -1.19922,0.54094 -1.19922,1.21094v11.82031h-2.32031v-6.41992c0,-0.67 -0.53922,-1.21094 -1.19922,-1.21094h-5.21094c-0.66,0 -1.19922,0.54094 -1.19922,1.21094v6.41992h-0.38086c-0.66,0 -1.19922,0.53898 -1.19922,1.20898c0,0.67 0.53922,1.21094 1.19922,1.21094h1.58008h5.23047v-0.00977h4.71094h5.20898h4.71094h5.20898h1.58008c0.66,0 1.19922,-0.54094 1.19922,-1.21094c0,-0.67 -0.53922,-1.20898 -1.19922,-1.20898h-0.37891v-16.54102c0,-0.67 -0.54117,-1.20899 -1.20117,-1.20899zM35.75977,14.03906h2.82031v15.35156h-2.82031zM25.83984,18.7793h2.82031v10.62109h-2.82031zM15.91016,24.16992h2.82031v5.2207h-2.82031zM14.69922,36.84961c-0.66,0 -1.19922,0.54094 -1.19922,1.21094c0,0.67 0.53922,1.20898 1.19922,1.20898h15.15039c0.66,0 1.20117,-0.53898 1.20117,-1.20898c0,-0.67 -0.54117,-1.21094 -1.20117,-1.21094zM39.03906,36.85938c-0.66,0 -1.19922,0.54094 -1.19922,1.21094c0,0.67 0.53922,1.20898 1.19922,1.20898h12.26172c0.66,0 1.19922,-0.53898 1.19922,-1.20898c0,-0.67 -0.53922,-1.21094 -1.19922,-1.21094zM31.74023,45.08008c-0.66,0 -1.20117,0.53898 -1.20117,1.20898c0,0.67 0.54117,1.21094 1.20117,1.21094h8.0293c0.67,0 1.20117,-0.54094 1.20117,-1.21094c0,-0.67 -0.54117,-1.20898 -1.20117,-1.20898zM14.69922,45.08984c-0.66,0 -1.19922,0.54094 -1.19922,1.21094c0,0.67 0.53922,1.20898 1.19922,1.20898h9.02148c0.66,0 1.19922,-0.53898 1.19922,-1.20898c0,-0.67 -0.53922,-1.21094 -1.19922,-1.21094zM46.33008,45.08984c-0.66,0 -1.19922,0.54094 -1.19922,1.21094c0,0.67 0.53922,1.20898 1.19922,1.20898h4.9707c0.66,0 1.19922,-0.53898 1.19922,-1.20898c0,-0.67 -0.53922,-1.21094 -1.19922,-1.21094zM14.69922,53.32031c-0.66,0 -1.19922,0.53898 -1.19922,1.20898c0,0.67 0.53922,1.21094 1.19922,1.21094h18.04102c0.66,0 1.19922,-0.54094 1.19922,-1.21094c0,-0.67 -0.52922,-1.20898 -1.19922,-1.20898zM41.35938,53.32031c-0.66,0 -1.19922,0.53898 -1.19922,1.20898c0,0.67 0.53922,1.21094 1.19922,1.21094h9.94141c0.66,0 1.19922,-0.54094 1.19922,-1.21094c0,-0.67 -0.53922,-1.20898 -1.19922,-1.20898z"></path></g></g></svg>