<svg width="150" height="151" viewBox="0 0 150 151" fill="none" xmlns="http://www.w3.org/2000/svg">
<circle cx="74.8085" cy="75.4965" r="74.6809" fill="#111926"/>
<circle cx="74.8084" cy="75.4964" r="52.9752" stroke="white"/>
<circle cx="74.8085" cy="75.4965" r="74.1809" stroke="white"/>
<path d="M14.1805 60.8419L13.7482 62.6011L12.6387 62.3284L13.0709 60.5692C13.1377 60.2974 13.1479 60.0652 13.1013 59.8728C13.0516 59.6795 12.9558 59.5236 12.814 59.405C12.6722 59.2863 12.5001 59.2021 12.2978 59.1524C12.0923 59.1019 11.8914 59.0945 11.6949 59.13C11.4985 59.1655 11.3256 59.2554 11.1761 59.3997C11.0267 59.544 10.9186 59.7521 10.8518 60.024L10.5407 61.29L16.3304 62.7127L15.9808 64.1352L9.07683 62.4387L9.73747 59.7501C9.8703 59.2096 10.0821 58.7706 10.3729 58.433C10.6612 58.0916 11.0014 57.8601 11.3933 57.7385C11.7852 57.6169 12.2008 57.6101 12.6402 57.7181C13.0859 57.8276 13.4464 58.0251 13.7215 58.3106C13.9966 58.5961 14.1749 58.955 14.2564 59.3873C14.3386 59.8165 14.3133 60.3013 14.1805 60.8419Z" fill="white"/>
<path d="M11.1238 55.0556L12.0437 52.5689C12.2323 52.0591 12.4707 51.6492 12.7588 51.3393C13.0481 51.0263 13.3791 50.826 13.7517 50.7382C14.1243 50.6504 14.5289 50.6873 14.9655 50.8488C15.3227 50.9809 15.6069 51.1555 15.8182 51.3725C16.0275 51.5853 16.1771 51.8332 16.2667 52.1163C16.3544 52.3952 16.3945 52.6998 16.3868 53.0302L16.4548 53.5499L15.6552 55.7114L14.5803 55.3242L15.1749 53.7168C15.2641 53.4756 15.2953 53.2598 15.2686 53.0694C15.2418 52.8791 15.1668 52.7159 15.0435 52.5801C14.9213 52.4412 14.7595 52.3345 14.558 52.2599C14.3443 52.1809 14.1449 52.1522 13.9598 52.174C13.7748 52.1958 13.6111 52.2724 13.4688 52.4037C13.3265 52.535 13.2102 52.7228 13.1198 52.967L12.7082 54.0798L18.2998 56.1483L17.7916 57.5221L11.1238 55.0556ZM19.1705 53.7944L15.636 54.2154L16.1639 52.7603L19.6502 52.3006L19.7143 52.3244L19.1705 53.7944Z" fill="white"/>
<path d="M21.4543 46.3625L22.4778 46.8704L20.7959 50.2602L19.7723 49.7524L21.4543 46.3625ZM14.64 46.6717L21.0085 49.8316L20.3575 51.1438L13.9889 47.9839L14.64 46.6717ZM18.4839 45.4392L19.4811 45.934L18.0184 48.8821L17.0211 48.3873L18.4839 45.4392ZM16.1071 43.7148L17.135 44.2249L15.4552 47.6103L14.4273 47.1003L16.1071 43.7148Z" fill="white"/>
<path d="M17.5201 41.4129L18.2008 40.3762L23.5663 41.7147L20.2055 37.3232L20.8863 36.2865L25.4193 42.3356L24.8725 43.1683L17.5201 41.4129ZM17.1529 41.9721L17.831 40.9395L22.2072 43.5444L23.897 44.6539L23.0956 45.8743L17.1529 41.9721ZM20.5754 36.76L21.2561 35.7233L27.1988 39.6255L26.3948 40.8499L24.7051 39.7404L20.5754 36.76Z" fill="white"/>
<path d="M23.5879 33.072L29.0832 37.5826L28.1569 38.7111L22.6617 34.2005L23.5879 33.072Z" fill="white"/>
<path d="M28.5405 27.7894L29.5667 26.7509L32.908 30.0524C33.297 30.4368 33.5422 30.8439 33.6438 31.2737C33.7476 31.7012 33.7226 32.1272 33.5686 32.5517C33.4169 32.9738 33.1546 33.3736 32.7816 33.751C32.4087 34.1284 32.0098 34.3978 31.5849 34.5592C31.1624 34.7183 30.7356 34.7496 30.3045 34.6532C29.8758 34.5545 29.4669 34.3129 29.0779 33.9286L25.7366 30.6271L26.7662 29.5851L30.1075 32.8866C30.3344 33.1108 30.5551 33.258 30.7696 33.328C30.9841 33.3981 31.1913 33.3992 31.3911 33.3312C31.5933 33.2609 31.7859 33.1332 31.9689 32.9479C32.1565 32.7581 32.2819 32.564 32.3452 32.3656C32.4108 32.165 32.4061 31.959 32.3312 31.7477C32.2585 31.534 32.1087 31.3151 31.8818 31.0909L28.5405 27.7894Z" fill="white"/>
<path d="M31.8768 24.8206L32.8537 24.0564L37.5082 27.0423L35.7303 21.806L36.7072 21.0418L39.0648 28.2238L38.2802 28.8375L31.8768 24.8206ZM31.3499 25.2327L32.3229 24.4716L35.6348 28.3405L36.8803 29.9327L35.7304 30.8322L31.3499 25.2327ZM36.261 21.3908L37.2379 20.6266L41.6184 26.2261L40.4646 27.1287L39.2191 25.5365L36.261 21.3908Z" fill="white"/>
<path d="M48.4355 20.4164C48.3774 20.3035 48.3078 20.2112 48.2268 20.1394C48.1472 20.0633 48.0432 20.0107 47.9147 19.9817C47.7848 19.9499 47.6194 19.9381 47.4186 19.9464C47.2178 19.9547 46.9677 19.9848 46.6685 20.0366C46.3343 20.0917 46.0086 20.1278 45.6915 20.1448C45.3772 20.1604 45.0821 20.1422 44.8063 20.0903C44.5319 20.0341 44.2853 19.9323 44.0666 19.7851C43.8507 19.6363 43.6726 19.426 43.5324 19.154C43.3966 18.8908 43.3314 18.6222 43.3367 18.3485C43.3406 18.0718 43.4071 17.8031 43.5363 17.5423C43.6641 17.2787 43.8481 17.0318 44.0884 16.8017C44.3315 16.5701 44.6238 16.3663 44.9652 16.1902C45.431 15.95 45.8808 15.8243 46.3145 15.8131C46.7482 15.8018 47.1359 15.8931 47.4775 16.0868C47.822 16.2791 48.0913 16.5633 48.2852 16.9394L46.992 17.6063C46.8965 17.4211 46.7739 17.2792 46.6241 17.1807C46.4758 17.0777 46.3027 17.026 46.1046 17.0255C45.9095 17.0236 45.6948 17.083 45.4605 17.2039C45.2348 17.3203 45.0646 17.452 44.95 17.599C44.8339 17.7431 44.768 17.8924 44.7525 18.0469C44.7354 18.1986 44.7635 18.3452 44.8366 18.487C44.8918 18.5941 44.9678 18.6776 45.0646 18.7375C45.1644 18.7959 45.2871 18.8352 45.433 18.8552C45.5788 18.8752 45.747 18.8782 45.9376 18.8642C46.1281 18.8502 46.3425 18.822 46.5807 18.7798C46.9787 18.7064 47.3415 18.6676 47.669 18.6636C47.9994 18.658 48.2947 18.6907 48.5547 18.7617C48.8147 18.8327 49.0425 18.9478 49.2382 19.107C49.4338 19.2662 49.5987 19.4759 49.733 19.7363C49.8747 20.0112 49.948 20.2847 49.9529 20.5569C49.9577 20.8291 49.8977 21.0926 49.7727 21.3475C49.6478 21.6024 49.4651 21.8412 49.2248 22.0641C48.9844 22.2869 48.6906 22.4878 48.3435 22.6669C48.031 22.828 47.702 22.9464 47.3564 23.022C47.0094 23.0948 46.6682 23.1114 46.3328 23.0719C46.0004 23.0309 45.6932 22.9183 45.4114 22.734C45.1296 22.5497 44.8969 22.2796 44.7134 21.9237L46.0197 21.2501C46.1211 21.4468 46.2373 21.5975 46.3682 21.7022C46.4991 21.8068 46.6411 21.8728 46.7943 21.9C46.9504 21.9257 47.1148 21.9178 47.2876 21.8764C47.4632 21.8334 47.6436 21.7642 47.8287 21.6687C48.0544 21.5523 48.2232 21.425 48.335 21.2868C48.4497 21.147 48.5127 21.0029 48.524 20.8542C48.5381 20.7041 48.5086 20.5581 48.4355 20.4164Z" fill="white"/>
<path d="M55.8249 18.169L56.2417 19.2329L52.7182 20.6132L52.3015 19.5493L55.8249 18.169ZM50.5706 13.8191L53.1638 20.4387L51.7999 20.973L49.2067 14.3534L50.5706 13.8191ZM54.2455 15.4892L54.6516 16.5258L51.5873 17.7262L51.1812 16.6897L54.2455 15.4892ZM53.644 12.6151L54.0625 13.6835L50.5436 15.0621L50.125 13.9936L53.644 12.6151Z" fill="white"/>
<path d="M55.5402 12.0707L58.0976 11.3709C58.6219 11.2275 59.0939 11.1827 59.5137 11.2366C59.9365 11.2896 60.2921 11.442 60.5804 11.6939C60.8687 11.9457 61.0743 12.2962 61.1971 12.7452C61.2976 13.1125 61.3212 13.4452 61.2678 13.7434C61.2166 14.0375 61.1021 14.3034 60.9241 14.541C60.7485 14.7747 60.5241 14.9846 60.251 15.1707L59.868 15.5286L57.6451 16.1369L57.3341 15.0374L58.9872 14.5851C59.2352 14.5172 59.4289 14.417 59.5681 14.2844C59.7073 14.1518 59.7962 13.9958 59.8349 13.8165C59.8767 13.6363 59.8693 13.4426 59.8126 13.2354C59.7524 13.0156 59.6596 12.8368 59.5342 12.699C59.4087 12.5612 59.2512 12.4727 59.0616 12.4335C58.872 12.3942 58.6516 12.409 58.4004 12.4777L57.256 12.7909L58.8295 18.5414L57.4166 18.928L55.5402 12.0707ZM61.2503 17.879L58.8503 15.2503L60.3407 14.8323L62.744 17.3994L62.7621 17.4653L61.2503 17.879Z" fill="white"/>
<path d="M66.3817 15.4344L67.1754 9.61931L68.787 9.36957L67.4293 16.7742L66.3678 16.9387L66.3817 15.4344ZM63.9956 10.112L66.5072 15.415L66.9854 16.843L65.9142 17.009L62.3936 10.3603L63.9956 10.112Z" fill="white"/>
<path d="M72.0571 9.25225L72.495 16.3481L71.0378 16.438L70.5999 9.34217L72.0571 9.25225Z" fill="white"/>
<path d="M79.3513 14.0394L80.8106 14.0839C80.7667 14.5613 80.622 14.9819 80.3765 15.3457C80.1341 15.7095 79.8016 15.9893 79.3787 16.1848C78.9592 16.3804 78.4582 16.4694 77.8758 16.4516C77.4203 16.4377 77.0143 16.3472 76.6579 16.18C76.3016 16.0096 75.9994 15.7724 75.7514 15.4685C75.5067 15.1646 75.324 14.8008 75.2034 14.377C75.0828 13.9533 75.0304 13.4811 75.0463 12.9605L75.0613 12.4675C75.0772 11.9469 75.1598 11.4789 75.3093 11.0633C75.4621 10.6446 75.6715 10.2911 75.9376 10.0029C76.2069 9.7147 76.5246 9.49642 76.8906 9.348C77.2566 9.19957 77.6625 9.13216 78.1083 9.14575C78.7004 9.1638 79.1966 9.2864 79.5968 9.51354C80.0002 9.74078 80.3084 10.0465 80.5214 10.4308C80.7377 10.8152 80.8612 11.2488 80.8921 11.7318L79.4279 11.6871C79.4204 11.4003 79.3708 11.1562 79.2793 10.9547C79.1878 10.75 79.0444 10.5942 78.849 10.4873C78.6569 10.3772 78.3982 10.3172 78.0729 10.3073C77.8288 10.2999 77.6143 10.3389 77.4293 10.4245C77.2444 10.51 77.0872 10.6437 76.9579 10.8253C76.8286 11.007 76.7288 11.2385 76.6583 11.5197C76.5912 11.7977 76.5519 12.1254 76.5404 12.5029L76.5251 13.0055C76.5139 13.3732 76.5317 13.6978 76.5784 13.9793C76.6253 14.2576 76.7028 14.4944 76.8108 14.6898C76.9222 14.8821 77.0675 15.0299 77.2467 15.133C77.4293 15.233 77.6507 15.287 77.911 15.2949C78.2169 15.3043 78.4705 15.2631 78.672 15.1716C78.8734 15.08 79.0291 14.9398 79.1391 14.751C79.2523 14.5624 79.3231 14.3251 79.3513 14.0394Z" fill="white"/>
<path d="M86.9045 16.192L86.7487 17.3239L82.9999 16.808L83.1557 15.6761L86.9045 16.192ZM84.4431 9.83022L83.4739 16.8732L82.0228 16.6735L82.992 9.63053L84.4431 9.83022ZM86.8346 13.0821L86.6829 14.185L83.4226 13.7364L83.5743 12.6335L86.8346 13.0821ZM87.7131 10.2802L87.5567 11.4169L83.8126 10.9017L83.9691 9.76499L87.7131 10.2802Z" fill="white"/>
<path d="M91.9684 16.7134C91.9985 16.5901 92.0065 16.4748 91.9925 16.3675C91.9824 16.2578 91.9384 16.1498 91.8605 16.0437C91.7833 15.9344 91.6662 15.817 91.5092 15.6915C91.3522 15.5661 91.1437 15.4247 90.8839 15.2674C90.5956 15.0898 90.3261 14.9034 90.0755 14.7082C89.8281 14.5137 89.6174 14.3065 89.4433 14.0863C89.2731 13.8638 89.1538 13.6253 89.0852 13.3706C89.0199 13.1168 89.0235 12.8412 89.0961 12.544C89.1664 12.2562 89.2933 12.0107 89.4769 11.8076C89.6613 11.6013 89.8878 11.4422 90.1565 11.3302C90.4258 11.215 90.7267 11.1494 91.059 11.1334C91.3944 11.1181 91.7487 11.156 92.1219 11.2471C92.631 11.3714 93.0529 11.5716 93.3876 11.8477C93.7223 12.1238 93.955 12.447 94.0858 12.8173C94.2196 13.1885 94.2364 13.5796 94.136 13.9907L92.7225 13.6455C92.7719 13.4431 92.7724 13.2556 92.7241 13.083C92.6797 12.908 92.583 12.7553 92.4338 12.6251C92.2878 12.4956 92.0868 12.3996 91.8306 12.3371C91.584 12.2769 91.3692 12.2646 91.1862 12.3004C91.004 12.3329 90.8563 12.4024 90.7432 12.5089C90.6309 12.6121 90.5558 12.7412 90.518 12.8962C90.4894 13.0132 90.492 13.1261 90.5258 13.2348C90.5627 13.3444 90.6296 13.4545 90.7265 13.5653C90.8235 13.6761 90.9484 13.7887 91.1014 13.9031C91.2544 14.0176 91.4347 14.137 91.6422 14.2614C91.9908 14.4671 92.29 14.6759 92.5398 14.8877C92.7928 15.1002 92.9942 15.3186 93.1438 15.5428C93.2935 15.767 93.3899 16.0033 93.4332 16.2518C93.4764 16.5002 93.4632 16.7668 93.3937 17.0514C93.3204 17.3518 93.1962 17.6063 93.0213 17.8149C92.8464 18.0235 92.6282 18.183 92.3667 18.2934C92.1052 18.4038 91.8106 18.4642 91.483 18.4747C91.1554 18.4852 90.8019 18.4441 90.4224 18.3515C90.0809 18.2681 89.7549 18.1416 89.4445 17.9719C89.1348 17.7992 88.8664 17.5879 88.6393 17.338C88.4152 17.089 88.2573 16.8025 88.1656 16.4785C88.0738 16.1545 88.0754 15.798 88.1703 15.4091L89.5981 15.7577C89.5456 15.9727 89.5344 16.1627 89.5645 16.3275C89.5947 16.4924 89.6586 16.6353 89.7564 16.7563C89.8573 16.8782 89.9866 16.9801 90.1441 17.0621C90.3049 17.1449 90.4864 17.211 90.6888 17.2605C90.9355 17.3207 91.1464 17.3353 91.3215 17.3044C91.4997 17.2742 91.6419 17.2067 91.7479 17.1019C91.857 16.9978 91.9305 16.8684 91.9684 16.7134Z" fill="white"/>
<path d="M104.402 19.5062L103.271 22.0867C103.116 22.1645 102.901 22.2285 102.627 22.2789C102.354 22.3262 102.028 22.3274 101.649 22.2824C101.271 22.2375 100.845 22.1111 100.371 21.9033C99.9505 21.7191 99.5974 21.4826 99.3117 21.1939C99.0272 20.9022 98.8186 20.5673 98.6858 20.1892C98.5559 19.8124 98.5088 19.4008 98.5445 18.9544C98.5816 18.505 98.7098 18.0299 98.9294 17.529L99.1077 17.1221C99.3272 16.6212 99.5867 16.2036 99.8861 15.8692C100.188 15.5361 100.519 15.2883 100.878 15.1258C101.237 14.9634 101.615 14.8852 102.01 14.8915C102.405 14.8977 102.807 14.9903 103.216 15.1693C103.782 15.4176 104.207 15.7139 104.489 16.0581C104.773 16.3994 104.94 16.7744 104.988 17.183C105.041 17.5899 104.998 18.0119 104.86 18.4489L103.558 17.8785C103.622 17.6435 103.644 17.4237 103.623 17.2193C103.603 17.0148 103.526 16.8284 103.394 16.6602C103.264 16.4933 103.064 16.3504 102.793 16.2315C102.569 16.1335 102.349 16.0921 102.133 16.1075C101.921 16.1211 101.716 16.1898 101.52 16.3134C101.324 16.437 101.137 16.6148 100.961 16.8468C100.785 17.0787 100.621 17.3661 100.471 17.709L100.289 18.1249C100.14 18.4648 100.041 18.7803 99.9913 19.0714C99.9432 19.3595 99.9441 19.6211 99.9939 19.8562C100.048 20.0896 100.151 20.2928 100.302 20.4659C100.454 20.639 100.657 20.781 100.91 20.8921C101.122 20.9849 101.305 21.0441 101.461 21.0697C101.62 21.0967 101.754 21.1038 101.862 21.091C101.975 21.0765 102.066 21.0559 102.135 21.0291L102.64 19.8753L101.415 19.3382L101.835 18.3812L104.402 19.5062Z" fill="white"/>
<path d="M110.919 19.3892L112.181 20.1228L109.821 24.1841C109.546 24.6569 109.213 24.9963 108.823 25.2022C108.435 25.4097 108.016 25.4921 107.566 25.4492C107.12 25.408 106.667 25.2541 106.208 24.9875C105.75 24.7209 105.389 24.4021 105.126 24.0312C104.867 23.6619 104.729 23.2565 104.715 22.8151C104.703 22.3753 104.835 21.919 105.109 21.4461L107.47 17.3848L108.736 18.1208L106.376 22.1821C106.216 22.4579 106.128 22.7085 106.114 22.9337C106.1 23.1589 106.151 23.3597 106.267 23.5362C106.385 23.7143 106.557 23.8688 106.782 23.9996C107.013 24.1337 107.233 24.2066 107.44 24.2182C107.651 24.2315 107.849 24.1754 108.035 24.0499C108.224 23.9261 108.398 23.7263 108.559 23.4505L110.919 19.3892Z" fill="white"/>
<path d="M114.032 21.4583L116.159 23.0412C116.595 23.3658 116.921 23.7099 117.138 24.0737C117.356 24.4395 117.455 24.8134 117.435 25.1957C117.414 25.5779 117.265 25.9558 116.987 26.3292C116.759 26.6347 116.512 26.8583 116.244 26.9999C115.981 27.1409 115.701 27.2145 115.404 27.2208C115.112 27.2265 114.808 27.1791 114.493 27.0787L113.976 26.9976L112.127 25.6217L112.801 24.6992L114.176 25.7224C114.382 25.876 114.58 25.9667 114.771 25.9946C114.961 26.0226 115.138 25.9965 115.304 25.9165C115.471 25.8384 115.619 25.7132 115.747 25.5408C115.883 25.358 115.967 25.1748 115.998 24.9911C116.03 24.8073 116.002 24.6287 115.916 24.4552C115.83 24.2817 115.683 24.1172 115.474 23.9617L114.522 23.2534L110.963 28.0361L109.788 27.1616L114.032 21.4583ZM112.976 29.5345L113.568 26.0245L114.815 26.9408L114.274 30.4155L114.234 30.4703L112.976 29.5345Z" fill="white"/>
<path d="M121.319 29.0767L115.877 32.0538L114.741 30.9885L121.53 27.6086L122.253 28.2866L121.319 29.0767ZM118.46 34.475L121.076 28.8496L121.794 27.8558L122.524 28.5404L119.6 35.5437L118.46 34.475ZM120.206 32.4842L119.421 33.3213L116.682 30.7532L117.466 29.9161L120.206 32.4842Z" fill="white"/>
<path d="M129.22 36.0438L123.786 40.6279L122.841 39.5082L124.642 34.252L120.999 37.3248L120.055 36.2052L125.489 31.6211L126.433 32.7408L124.632 38.0038L128.278 34.9279L129.22 36.0438Z" fill="white"/>
<path d="M132.283 40.6248L126.366 44.5647L125.556 43.3494L131.474 39.4095L132.283 40.6248ZM133.496 42.4456L132.54 43.0815L129.326 38.253L130.281 37.6171L133.496 42.4456Z" fill="white"/>
<path d="M131.257 51.062L130.246 51.5943L128.483 48.2459L129.494 47.7136L131.257 51.062ZM134.997 45.3571L128.706 48.6693L128.024 47.3732L134.314 44.0609L134.997 45.3571ZM133.745 49.1947L132.76 49.7134L131.227 46.8014L132.212 46.2827L133.745 49.1947ZM136.535 48.2777L135.519 48.8123L133.759 45.4683L134.774 44.9337L136.535 48.2777Z" fill="white"/>
<path d="M133.528 56.7442L132.469 57.1738L131.046 53.6673L132.105 53.2377L133.528 56.7442ZM137.814 51.4377L131.226 54.1107L130.675 52.7533L137.263 50.0803L137.814 51.4377ZM136.188 55.1325L135.156 55.551L133.919 52.5015L134.951 52.0829L136.188 55.1325ZM139.055 54.4962L137.991 54.9277L136.57 51.4257L137.634 50.9942L139.055 54.4962Z" fill="white"/>
<path d="M133.39 60.443L132.963 58.9551L134.064 58.6496L134.488 60.1281C134.594 60.4974 134.766 60.7849 135.004 60.9909C135.246 61.1959 135.546 61.3163 135.905 61.3522C136.265 61.3913 136.674 61.3453 137.131 61.2143L137.464 61.1188C137.814 61.0183 138.112 60.8924 138.356 60.7411C138.602 60.5928 138.795 60.4207 138.935 60.2248C139.075 60.0288 139.16 59.813 139.191 59.5773C139.225 59.3407 139.203 59.0863 139.125 58.8141L138.686 57.2839L139.789 56.9677L140.228 58.4979C140.359 58.9548 140.4 59.3949 140.352 59.8184C140.308 60.2441 140.182 60.6375 139.974 60.9985C139.766 61.3595 139.484 61.6726 139.126 61.9376C138.773 62.2048 138.352 62.4084 137.864 62.5484L137.54 62.6412C137.055 62.7803 136.59 62.8305 136.146 62.792C135.702 62.7567 135.296 62.641 134.929 62.445C134.565 62.2513 134.25 61.9844 133.983 61.6444C133.72 61.3066 133.522 60.9061 133.39 60.443ZM140.026 57.7938L133.192 59.753L132.788 58.3449L139.622 56.3857L140.026 57.7938Z" fill="white"/>
<path d="M135.537 90.3617L135.97 88.6025L137.079 88.8752L136.647 90.6344C136.58 90.9062 136.57 91.1384 136.616 91.3308C136.666 91.5241 136.762 91.68 136.904 91.7987C137.046 91.9173 137.218 92.0015 137.42 92.0512C137.625 92.1017 137.826 92.1092 138.023 92.0736C138.219 92.0381 138.392 91.9482 138.542 91.8039C138.691 91.6596 138.799 91.4515 138.866 91.1797L139.177 89.9136L133.387 88.491L133.737 87.0684L140.641 88.7649L139.98 91.4535C139.847 91.994 139.636 92.4331 139.345 92.7706C139.057 93.112 138.716 93.3435 138.325 93.4651C137.933 93.5867 137.517 93.5935 137.078 93.4855C136.632 93.376 136.271 93.1785 135.996 92.893C135.721 92.6075 135.543 92.2486 135.461 91.8163C135.379 91.3871 135.404 90.9023 135.537 90.3617Z" fill="white"/>
<path d="M138.594 96.148L137.674 98.6347C137.486 99.1446 137.247 99.5544 136.959 99.8643C136.67 100.177 136.339 100.378 135.966 100.465C135.593 100.553 135.189 100.516 134.752 100.355C134.395 100.223 134.111 100.048 133.9 99.8311C133.69 99.6183 133.541 99.3704 133.451 99.0873C133.363 98.8084 133.323 98.5038 133.331 98.1735L133.263 97.6537L134.063 95.4922L135.138 95.8794L134.543 97.4868C134.454 97.728 134.422 97.9438 134.449 98.1342C134.476 98.3246 134.551 98.4877 134.674 98.6235C134.796 98.7624 134.958 98.8691 135.16 98.9437C135.373 99.0227 135.573 99.0514 135.758 99.0296C135.943 99.0078 136.107 98.9313 136.249 98.7999C136.391 98.6686 136.508 98.4808 136.598 98.2366L137.01 97.1238L131.418 95.0553L131.926 93.6815L138.594 96.148ZM130.547 97.4092L134.082 96.9883L133.554 98.4434L130.068 98.903L130.003 98.8792L130.547 97.4092Z" fill="white"/>
<path d="M128.263 104.841L127.24 104.333L128.922 100.943L129.945 101.451L128.263 104.841ZM135.078 104.532L128.709 101.372L129.36 100.06L135.729 103.22L135.078 104.532ZM131.234 105.764L130.237 105.27L131.699 102.322L132.697 102.816L131.234 105.764ZM133.611 107.489L132.583 106.979L134.263 103.593L135.29 104.103L133.611 107.489Z" fill="white"/>
<path d="M132.198 109.791L131.517 110.827L126.151 109.489L129.512 113.88L128.831 114.917L124.299 108.868L124.845 108.035L132.198 109.791ZM132.565 109.232L131.887 110.264L127.511 107.659L125.821 106.55L126.622 105.329L132.565 109.232ZM129.142 114.444L128.462 115.48L122.519 111.578L123.323 110.354L125.013 111.463L129.142 114.444Z" fill="white"/>
<path d="M126.13 118.132L120.635 113.621L121.561 112.493L127.056 117.003L126.13 118.132Z" fill="white"/>
<path d="M121.177 123.414L120.151 124.453L116.81 121.151C116.421 120.767 116.176 120.36 116.074 119.93C115.97 119.502 115.995 119.076 116.149 118.652C116.301 118.23 116.563 117.83 116.936 117.453C117.309 117.075 117.708 116.806 118.133 116.644C118.555 116.485 118.982 116.454 119.413 116.55C119.842 116.649 120.251 116.891 120.64 117.275L123.981 120.577L122.952 121.619L119.61 118.317C119.383 118.093 119.163 117.946 118.948 117.876C118.734 117.806 118.526 117.804 118.327 117.872C118.125 117.943 117.932 118.07 117.749 118.256C117.561 118.446 117.436 118.64 117.373 118.838C117.307 119.039 117.312 119.245 117.387 119.456C117.459 119.67 117.609 119.888 117.836 120.113L121.177 123.414Z" fill="white"/>
<path d="M117.841 126.383L116.864 127.147L112.21 124.161L113.987 129.398L113.011 130.162L110.653 122.98L111.438 122.366L117.841 126.383ZM118.368 125.971L117.395 126.732L114.083 122.863L112.837 121.271L113.987 120.371L118.368 125.971ZM113.457 129.813L112.48 130.577L108.099 124.977L109.253 124.075L110.499 125.667L113.457 129.813Z" fill="white"/>
<path d="M101.282 130.787C101.34 130.9 101.41 130.992 101.491 131.064C101.571 131.14 101.675 131.193 101.803 131.222C101.933 131.254 102.098 131.266 102.299 131.257C102.5 131.249 102.75 131.219 103.049 131.167C103.383 131.112 103.709 131.076 104.026 131.059C104.341 131.043 104.636 131.061 104.911 131.113C105.186 131.17 105.432 131.271 105.651 131.419C105.867 131.567 106.045 131.778 106.185 132.05C106.321 132.313 106.386 132.581 106.381 132.855C106.377 133.132 106.311 133.401 106.181 133.661C106.054 133.925 105.87 134.172 105.629 134.402C105.386 134.634 105.094 134.837 104.753 135.013C104.287 135.254 103.837 135.379 103.403 135.391C102.97 135.402 102.582 135.311 102.24 135.117C101.896 134.925 101.627 134.64 101.433 134.264L102.726 133.597C102.821 133.782 102.944 133.924 103.094 134.023C103.242 134.126 103.415 134.178 103.613 134.178C103.808 134.18 104.023 134.121 104.257 134C104.483 133.883 104.653 133.752 104.768 133.605C104.884 133.461 104.95 133.311 104.965 133.157C104.982 133.005 104.954 132.858 104.881 132.717C104.826 132.61 104.75 132.526 104.653 132.466C104.553 132.408 104.431 132.368 104.285 132.348C104.139 132.328 103.971 132.325 103.78 132.339C103.59 132.353 103.375 132.382 103.137 132.424C102.739 132.497 102.376 132.536 102.049 132.54C101.718 132.546 101.423 132.513 101.163 132.442C100.903 132.371 100.675 132.256 100.48 132.097C100.284 131.937 100.119 131.728 99.9848 131.467C99.843 131.192 99.7698 130.919 99.7649 130.647C99.7601 130.375 99.8201 130.111 99.945 129.856C100.07 129.601 100.253 129.362 100.493 129.14C100.733 128.917 101.027 128.716 101.374 128.537C101.687 128.376 102.016 128.257 102.361 128.182C102.708 128.109 103.05 128.092 103.385 128.132C103.717 128.173 104.025 128.285 104.306 128.47C104.588 128.654 104.821 128.924 105.004 129.28L103.698 129.954C103.597 129.757 103.48 129.606 103.35 129.501C103.219 129.397 103.077 129.331 102.923 129.304C102.767 129.278 102.603 129.286 102.43 129.327C102.255 129.37 102.074 129.439 101.889 129.535C101.663 129.651 101.495 129.779 101.383 129.917C101.268 130.057 101.205 130.201 101.194 130.349C101.18 130.5 101.209 130.645 101.282 130.787Z" fill="white"/>
<path d="M93.8928 133.035L93.4761 131.971L96.9995 130.59L97.4163 131.654L93.8928 133.035ZM99.1472 137.385L96.554 130.765L97.9179 130.231L100.511 136.85L99.1472 137.385ZM95.4723 135.714L95.0662 134.678L98.1305 133.477L98.5366 134.514L95.4723 135.714ZM96.0738 138.588L95.6553 137.52L99.1742 136.142L99.5927 137.21L96.0738 138.588Z" fill="white"/>
<path d="M94.1776 139.133L91.6202 139.833C91.0959 139.976 90.6238 140.021 90.2041 139.967C89.7812 139.914 89.4256 139.762 89.1374 139.51C88.8491 139.258 88.6435 138.907 88.5207 138.458C88.4201 138.091 88.3966 137.758 88.45 137.46C88.5011 137.166 88.6157 136.9 88.7936 136.663C88.9693 136.429 89.1937 136.219 89.4668 136.033L89.8497 135.675L92.0727 135.067L92.3837 136.166L90.7306 136.619C90.4825 136.686 90.2889 136.787 90.1497 136.919C90.0105 137.052 89.9216 137.208 89.8829 137.387C89.8411 137.567 89.8485 137.761 89.9052 137.968C89.9653 138.188 90.0581 138.367 90.1836 138.505C90.309 138.642 90.4666 138.731 90.6562 138.77C90.8458 138.809 91.0662 138.795 91.3174 138.726L92.4618 138.413L90.8883 132.662L92.3012 132.276L94.1776 139.133ZM88.4675 133.325L90.8675 135.953L89.3771 136.371L86.9737 133.804L86.9557 133.738L88.4675 133.325Z" fill="white"/>
<path d="M83.3361 135.769L82.5424 141.584L80.9307 141.834L82.2885 134.429L83.35 134.265L83.3361 135.769ZM85.7222 141.092L83.2106 135.789L82.7324 134.361L83.8036 134.195L87.3242 140.843L85.7222 141.092Z" fill="white"/>
<path d="M77.6607 141.951L77.2228 134.855L78.68 134.766L79.1179 141.861L77.6607 141.951Z" fill="white"/>
<path d="M70.3664 137.164L68.9072 137.12C68.951 136.642 69.0957 136.222 69.3413 135.858C69.5836 135.494 69.9162 135.214 70.339 135.019C70.7586 134.823 71.2596 134.734 71.842 134.752C72.2975 134.766 72.7035 134.856 73.0599 135.024C73.4162 135.194 73.7183 135.431 73.9663 135.735C74.2111 136.039 74.3938 136.403 74.5144 136.827C74.635 137.25 74.6874 137.723 74.6715 138.243L74.6565 138.736C74.6406 139.257 74.5579 139.725 74.4085 140.14C74.2557 140.559 74.0463 140.913 73.7802 141.201C73.5109 141.489 73.1932 141.707 72.8272 141.856C72.4612 142.004 72.0553 142.071 71.6095 142.058C71.0173 142.04 70.5212 141.917 70.121 141.69C69.7176 141.463 69.4094 141.157 69.1964 140.773C68.9801 140.388 68.8566 139.955 68.8257 139.472L70.2899 139.516C70.2974 139.803 70.3469 140.047 70.4385 140.249C70.53 140.454 70.6734 140.609 70.8688 140.716C71.0608 140.826 71.3196 140.886 71.6449 140.896C71.8889 140.904 72.1035 140.865 72.2884 140.779C72.4734 140.694 72.6306 140.56 72.7599 140.378C72.8892 140.197 72.989 139.965 73.0595 139.684C73.1266 139.406 73.1659 139.078 73.1774 138.701L73.1927 138.198C73.2039 137.83 73.1861 137.506 73.1393 137.224C73.0925 136.946 73.015 136.709 72.907 136.514C72.7956 136.321 72.6503 136.174 72.4711 136.071C72.2885 135.971 72.067 135.917 71.8067 135.909C71.5009 135.899 71.2472 135.94 71.0458 136.032C70.8443 136.124 70.6886 136.264 70.5787 136.453C70.4654 136.641 70.3947 136.878 70.3664 137.164Z" fill="white"/>
<path d="M62.8133 135.012L62.969 133.88L66.7179 134.396L66.5621 135.528L62.8133 135.012ZM65.2747 141.373L66.2438 134.33L67.695 134.53L66.7258 141.573L65.2747 141.373ZM62.8831 138.122L63.0349 137.019L66.2952 137.467L66.1434 138.57L62.8831 138.122ZM62.0047 140.923L62.1611 139.787L65.9051 140.302L65.7487 141.439L62.0047 140.923Z" fill="white"/>
<path d="M57.7494 134.49C57.7193 134.614 57.7112 134.729 57.7252 134.836C57.7353 134.946 57.7793 135.054 57.8573 135.16C57.9345 135.269 58.0516 135.387 58.2086 135.512C58.3656 135.638 58.574 135.779 58.8339 135.936C59.1222 136.114 59.3917 136.3 59.6422 136.495C59.8896 136.69 60.1004 136.897 60.2745 137.117C60.4447 137.34 60.564 137.578 60.6325 137.833C60.6979 138.087 60.6943 138.362 60.6217 138.66C60.5514 138.947 60.4245 139.193 60.2408 139.396C60.0564 139.602 59.8299 139.761 59.5613 139.873C59.2919 139.989 58.9911 140.054 58.6588 140.07C58.3233 140.086 57.969 140.048 57.5959 139.956C57.0867 139.832 56.6648 139.632 56.3301 139.356C55.9954 139.08 55.7627 138.757 55.632 138.386C55.4981 138.015 55.4814 137.624 55.5817 137.213L56.9953 137.558C56.9459 137.76 56.9453 137.948 56.9937 138.121C57.038 138.296 57.1348 138.448 57.2839 138.579C57.4299 138.708 57.631 138.804 57.8871 138.867C58.1338 138.927 58.3486 138.939 58.5316 138.903C58.7138 138.871 58.8614 138.801 58.9745 138.695C59.0869 138.592 59.162 138.462 59.1998 138.307C59.2284 138.19 59.2258 138.078 59.192 137.969C59.1551 137.859 59.0882 137.749 58.9912 137.638C58.8943 137.528 58.7693 137.415 58.6163 137.3C58.4633 137.186 58.2831 137.067 58.0755 136.942C57.727 136.737 57.4278 136.528 57.178 136.316C56.9249 136.103 56.7236 135.885 56.5739 135.661C56.4243 135.437 56.3278 135.2 56.2846 134.952C56.2414 134.703 56.2546 134.437 56.324 134.152C56.3974 133.852 56.5215 133.597 56.6964 133.389C56.8714 133.18 57.0896 133.021 57.3511 132.91C57.6126 132.8 57.9072 132.739 58.2347 132.729C58.5623 132.718 58.9159 132.76 59.2953 132.852C59.6369 132.936 59.9629 133.062 60.2733 133.232C60.5829 133.404 60.8513 133.616 61.0785 133.866C61.3025 134.115 61.4604 134.401 61.5522 134.725C61.644 135.049 61.6424 135.406 61.5474 135.795L60.1196 135.446C60.1722 135.231 60.1833 135.041 60.1532 134.876C60.1231 134.711 60.0592 134.568 59.9614 134.447C59.8605 134.325 59.7312 134.224 59.5736 134.141C59.4129 134.059 59.2314 133.993 59.029 133.943C58.7823 133.883 58.5714 133.868 58.3963 133.899C58.2181 133.929 58.0759 133.997 57.9699 134.102C57.8607 134.206 57.7872 134.335 57.7494 134.49Z" fill="white"/>
<path d="M45.3162 131.697L46.4472 129.117C46.6021 129.039 46.8168 128.975 47.0912 128.925C47.3643 128.877 47.69 128.876 48.0683 128.921C48.4467 128.966 48.8729 129.093 49.3469 129.3C49.7673 129.485 50.1204 129.721 50.4061 130.01C50.6905 130.301 50.8992 130.636 51.032 131.014C51.1619 131.391 51.2089 131.803 51.1732 132.249C51.1362 132.699 51.0079 133.174 50.7884 133.675L50.6101 134.082C50.3905 134.582 50.1311 135 49.8317 135.334C49.5293 135.668 49.1986 135.915 48.8395 136.078C48.4804 136.24 48.1032 136.318 47.7079 136.312C47.3125 136.306 46.9106 136.213 46.5022 136.034C45.9357 135.786 45.5111 135.49 45.2284 135.145C44.9444 134.804 44.7782 134.429 44.7298 134.021C44.6771 133.614 44.7199 133.192 44.8581 132.755L46.1595 133.325C46.0956 133.56 46.0739 133.78 46.0945 133.984C46.115 134.189 46.1915 134.375 46.3239 134.543C46.4534 134.71 46.6537 134.853 46.925 134.972C47.1487 135.07 47.3687 135.111 47.5851 135.096C47.7972 135.082 48.0014 135.014 48.1978 134.89C48.3941 134.767 48.5805 134.589 48.7568 134.357C48.933 134.125 49.0963 133.837 49.2466 133.495L49.4289 133.079C49.5779 132.739 49.677 132.423 49.7264 132.132C49.7745 131.844 49.7737 131.582 49.7239 131.347C49.6698 131.114 49.5669 130.911 49.4153 130.738C49.2637 130.565 49.0612 130.423 48.8078 130.312C48.5961 130.219 48.4124 130.16 48.2565 130.134C48.0978 130.107 47.964 130.1 47.8553 130.113C47.7424 130.127 47.6516 130.148 47.583 130.175L47.0773 131.328L48.3027 131.865L47.8832 132.822L45.3162 131.697Z" fill="white"/>
<path d="M38.7991 131.814L37.5368 131.081L39.8969 127.02C40.1717 126.547 40.5044 126.207 40.8952 126.001C41.2831 125.794 41.7018 125.712 42.1513 125.754C42.598 125.796 43.0507 125.95 43.5094 126.216C43.9682 126.483 44.3289 126.801 44.5914 127.172C44.8512 127.542 44.9884 127.947 45.0029 128.389C45.0147 128.828 44.8831 129.285 44.6084 129.757L42.2482 133.819L40.9817 133.083L43.3418 129.021C43.5021 128.746 43.5893 128.495 43.6035 128.27C43.6177 128.045 43.5668 127.844 43.451 127.667C43.3324 127.489 43.1605 127.335 42.9354 127.204C42.7046 127.07 42.4852 126.997 42.2774 126.985C42.0667 126.972 41.8685 127.028 41.6826 127.154C41.494 127.277 41.3195 127.477 41.1592 127.753L38.7991 131.814Z" fill="white"/>
<path d="M35.6857 129.745L33.5587 128.162C33.1226 127.838 32.7964 127.494 32.5802 127.13C32.3614 126.764 32.2624 126.39 32.2831 126.008C32.3038 125.626 32.4531 125.248 32.7311 124.874C32.9584 124.569 33.206 124.345 33.4737 124.204C33.7368 124.063 34.0168 123.989 34.3137 123.983C34.606 123.977 34.9095 124.025 35.2244 124.125L35.7423 124.206L37.5911 125.582L36.9168 126.504L35.5419 125.481C35.3356 125.328 35.1374 125.237 34.9472 125.209C34.7569 125.181 34.5793 125.207 34.4142 125.287C34.2466 125.365 34.0986 125.49 33.9703 125.663C33.8343 125.846 33.7506 126.029 33.7194 126.213C33.6882 126.396 33.7156 126.575 33.8015 126.748C33.8874 126.922 34.0348 127.086 34.2438 127.242L35.1956 127.95L38.755 123.167L39.9302 124.042L35.6857 129.745ZM36.7416 121.669L36.1502 125.179L34.9026 124.263L35.4434 120.788L35.4842 120.733L36.7416 121.669Z" fill="white"/>
<path d="M28.3991 122.127L33.8406 119.15L34.9769 120.215L28.1874 123.595L27.4643 122.917L28.3991 122.127ZM31.258 116.729L28.6414 122.354L27.9238 123.348L27.1936 122.663L30.1181 115.66L31.258 116.729ZM29.5121 118.719L30.2969 117.882L33.0362 120.45L32.2514 121.288L29.5121 118.719Z" fill="white"/>
<path d="M20.4981 115.16L25.9322 110.576L26.8768 111.695L25.0759 116.952L28.7186 113.879L29.6631 114.998L24.2289 119.582L23.2844 118.463L25.0859 113.2L21.4395 116.276L20.4981 115.16Z" fill="white"/>
<path d="M17.4345 110.579L23.3523 106.639L24.1614 107.854L18.2436 111.794L17.4345 110.579ZM16.2222 108.758L17.1773 108.122L20.3921 112.951L19.4369 113.587L16.2222 108.758Z" fill="white"/>
<path d="M18.4603 100.142L19.4713 99.6093L21.2344 102.958L20.2234 103.49L18.4603 100.142ZM14.7208 105.847L21.0114 102.534L21.6939 103.83L15.4033 107.143L14.7208 105.847ZM15.9725 102.009L16.9576 101.49L18.4909 104.402L17.5058 104.921L15.9725 102.009ZM13.183 102.926L14.1983 102.391L15.9591 105.735L14.9437 106.27L13.183 102.926Z" fill="white"/>
<path d="M16.1902 94.4594L17.249 94.0298L18.6718 97.5363L17.613 97.9659L16.1902 94.4594ZM11.9041 99.766L18.4918 97.0929L19.0426 98.4503L12.4549 101.123L11.9041 99.766ZM13.5297 96.0712L14.5613 95.6526L15.7987 98.7021L14.7671 99.1207L13.5297 96.0712ZM10.6631 96.7074L11.7263 96.2759L13.1473 99.7779L12.084 100.209L10.6631 96.7074Z" fill="white"/>
<path d="M16.3282 90.7606L16.7548 92.2485L15.6538 92.554L15.2299 91.0755C15.1241 90.7063 14.9519 90.4187 14.7134 90.2128C14.4717 90.0077 14.1714 89.8873 13.8123 89.8514C13.4523 89.8123 13.0439 89.8583 12.587 89.9893L12.2538 90.0848C11.9033 90.1853 11.6058 90.3112 11.3614 90.4626C11.1161 90.6108 10.9233 90.7829 10.783 90.9788C10.6428 91.1748 10.5574 91.3906 10.5267 91.6263C10.493 91.8629 10.5151 92.1173 10.5931 92.3895L11.0318 93.9197L9.92877 94.2359L9.49011 92.7057C9.35914 92.2489 9.31761 91.8087 9.36552 91.3852C9.40941 90.9595 9.53538 90.5661 9.74343 90.2051C9.95147 89.8441 10.2342 89.531 10.5917 89.266C10.9452 88.9988 11.366 88.7952 11.8541 88.6552L12.178 88.5624C12.663 88.4233 13.1277 88.3731 13.5722 88.4116C14.0158 88.447 14.4215 88.5626 14.7892 88.7586C15.1529 88.9523 15.4681 89.2192 15.7349 89.5593C15.9977 89.8971 16.1955 90.2975 16.3282 90.7606ZM9.69194 93.4098L16.526 91.4506L16.9297 92.8587L10.0956 94.8179L9.69194 93.4098Z" fill="white"/>
<path d="M48.9619 81.5461H44.9684C44.2334 81.5461 43.7656 82.3368 44.1219 82.9821C46.0926 86.543 49.8377 88.7546 53.8965 88.7546C57.7672 88.7546 61.347 86.7479 63.3726 83.4809H86.5375C88.5725 86.7479 92.1541 88.7546 96.0211 88.7546C100.079 88.7546 103.825 86.5429 105.797 82.9821C106.152 82.3385 105.687 81.5461 104.95 81.5461H100.957C98.7695 81.5461 96.9905 79.7671 96.9905 77.5809C96.9905 75.3937 98.7695 73.6147 100.957 73.6147H104.948C105.683 73.6147 106.151 72.8241 105.795 72.1787C103.824 68.6179 100.079 66.4062 96.0211 66.4062C92.1541 66.4062 88.5725 68.413 86.5375 71.68H63.3725C61.3469 68.413 57.7671 66.4062 53.8964 66.4062C49.8386 66.4062 46.0935 68.618 44.1236 72.1787C43.768 72.8192 44.2315 73.6147 44.9701 73.6147H48.9617C51.148 73.6147 52.927 75.3937 52.927 77.5809C52.9271 79.7671 51.1481 81.5461 48.9619 81.5461ZM48.9619 71.6799H46.7974C48.5339 69.5881 51.1272 68.341 53.8964 68.341C55.5462 68.3412 57.1657 68.7841 58.5859 69.6237C60.0061 70.4633 61.1749 71.6686 61.9704 73.114C62.0539 73.2657 62.1766 73.3922 62.3257 73.4802C62.4747 73.5683 62.6447 73.6148 62.8179 73.6147H87.091C87.2638 73.6148 87.4334 73.5685 87.5823 73.4808C87.7312 73.3931 87.8538 73.2671 87.9375 73.1159C89.5672 70.171 92.6651 68.341 96.021 68.341C98.7901 68.341 101.383 69.5881 103.121 71.6799H100.956C97.7027 71.6799 95.0555 74.3271 95.0555 77.5809C95.0555 80.8346 97.7027 83.481 100.956 83.481H103.123C101.384 85.5728 98.7901 86.8199 96.021 86.8199C92.6651 86.8199 89.5672 84.9899 87.9375 82.045C87.8538 81.8938 87.7312 81.7678 87.5823 81.6801C87.4334 81.5923 87.2638 81.5461 87.091 81.5461H62.8179C62.6447 81.5461 62.4748 81.5926 62.3257 81.6807C62.1766 81.7688 62.0539 81.8952 61.9704 82.0469C61.1749 83.4922 60.0061 84.6976 58.5859 85.5372C57.1657 86.3767 55.5462 86.8197 53.8964 86.8199C51.1262 86.8199 48.5329 85.5728 46.7955 83.481H48.9619C52.2156 83.481 54.862 80.8347 54.862 77.5809C54.862 74.327 52.2156 71.6799 48.9619 71.6799Z" fill="white"/>
<path d="M73.9917 53.0842V65.9659C73.9917 66.5006 74.4245 66.9334 74.9592 66.9334C75.494 66.9334 75.9267 66.5006 75.9267 65.9659V53.0841C77.4487 52.6578 78.575 51.2729 78.575 49.6166C78.575 47.6223 76.9529 46 74.9594 46C72.965 46 71.3427 47.6221 71.3427 49.6166C71.3426 51.273 72.469 52.6581 73.9917 53.0842ZM74.9591 47.9349C75.886 47.9349 76.6399 48.6898 76.6399 49.6166C76.6399 50.5435 75.886 51.2974 74.9591 51.2974C74.0322 51.2974 73.2774 50.5435 73.2774 49.6166C73.2774 48.6898 74.0324 47.9349 74.9591 47.9349ZM81.5084 66.9334C81.6354 66.9334 81.7613 66.9085 81.8787 66.8599C81.9961 66.8113 82.1028 66.74 82.1926 66.6501C82.2825 66.5603 82.3538 66.4536 82.4024 66.3362C82.4509 66.2188 82.4759 66.0929 82.4759 65.9659V57.2437H90.9681C91.3942 58.7665 92.7795 59.8929 94.4366 59.8929C96.431 59.8929 98.0532 58.2708 98.0532 56.2762C98.0532 54.2828 96.4311 52.6606 94.4366 52.6606C92.7796 52.6606 91.3945 53.7867 90.9682 55.3089H81.5084C81.3813 55.3088 81.2555 55.3338 81.138 55.3824C81.0206 55.431 80.9139 55.5022 80.8241 55.5921C80.7342 55.682 80.663 55.7886 80.6144 55.9061C80.5658 56.0235 80.5408 56.1493 80.5409 56.2764V65.966C80.5408 66.0931 80.5658 66.2189 80.6144 66.3363C80.663 66.4537 80.7343 66.5604 80.8241 66.6502C80.914 66.74 81.0207 66.8113 81.1381 66.8599C81.2555 66.9085 81.3813 66.9334 81.5084 66.9334ZM94.4366 54.5956C95.3635 54.5956 96.1184 55.3495 96.1184 56.2764C96.1184 57.2032 95.3635 57.9581 94.4366 57.9581C93.5097 57.9581 92.7549 57.2032 92.7549 56.2764C92.7549 55.3495 93.5097 54.5956 94.4366 54.5956ZM55.4817 59.8929C57.1381 59.8929 58.5232 58.7665 58.9494 57.2437H67.4426V65.9659C67.4426 66.5006 67.8754 66.9334 68.4101 66.9334C68.9449 66.9334 69.3776 66.5006 69.3776 65.9659V56.2764C69.3777 56.1493 69.3527 56.0235 69.3041 55.9061C69.2555 55.7886 69.1842 55.682 69.0944 55.5921C69.0045 55.5022 68.8979 55.431 68.7804 55.3824C68.663 55.3338 68.5372 55.3088 68.4101 55.3089H58.9494C58.523 53.7869 57.1381 52.6606 55.4819 52.6606C53.4875 52.6606 51.8652 54.2828 51.8652 56.2762C51.8651 58.2708 53.4874 59.8929 55.4817 59.8929ZM55.4817 54.5956C56.4086 54.5956 57.1625 55.3495 57.1625 56.2764C57.1625 57.2032 56.4086 57.9581 55.4817 57.9581C54.5549 57.9581 53.8 57.2032 53.8 56.2764C53.8 55.3495 54.555 54.5956 55.4817 54.5956ZM74.9591 87.605C74.832 87.6049 74.7062 87.6299 74.5888 87.6785C74.4714 87.7271 74.3647 87.7984 74.2748 87.8882C74.185 87.9781 74.1137 88.0848 74.0651 88.2022C74.0165 88.3196 73.9916 88.4454 73.9916 88.5725V101.454C72.4689 101.88 71.3425 103.266 71.3425 104.923C71.3425 106.917 72.9646 108.539 74.9591 108.539C76.9526 108.539 78.5747 106.917 78.5747 104.923C78.5747 103.266 77.4486 101.881 75.9265 101.454V88.5724C75.9266 88.4453 75.9016 88.3195 75.8531 88.2021C75.8045 88.0846 75.7332 87.978 75.6434 87.8881C75.5535 87.7983 75.4468 87.727 75.3294 87.6784C75.212 87.6299 75.0862 87.6049 74.9591 87.605ZM76.6399 104.923C76.6399 105.85 75.886 106.604 74.9591 106.604C74.0322 106.604 73.2774 105.85 73.2774 104.923C73.2774 103.996 74.0322 103.241 74.9591 103.241C75.886 103.241 76.6399 103.996 76.6399 104.923ZM68.41 87.605C68.2829 87.6049 68.1571 87.6299 68.0397 87.6785C67.9223 87.7271 67.8156 87.7984 67.7257 87.8882C67.6359 87.9781 67.5646 88.0848 67.516 88.2022C67.4674 88.3196 67.4424 88.4454 67.4425 88.5725V97.2946H58.9491C58.5227 95.7726 57.1379 94.6464 55.4816 94.6464C53.4872 94.6464 51.865 96.2685 51.865 98.262C51.865 100.256 53.4871 101.879 55.4816 101.879C57.138 101.879 58.5231 100.752 58.9492 99.2295H68.4099C68.5369 99.2296 68.6628 99.2046 68.7802 99.156C68.8976 99.1074 69.0043 99.0361 69.0941 98.9463C69.184 98.8564 69.2553 98.7497 69.3039 98.6323C69.3524 98.5149 69.3774 98.3891 69.3774 98.262V88.5724C69.3775 88.4453 69.3525 88.3195 69.3039 88.2021C69.2553 88.0846 69.1841 87.978 69.0942 87.8881C69.0044 87.7983 68.8977 87.727 68.7803 87.6784C68.6629 87.6299 68.5371 87.6049 68.41 87.605ZM55.4817 99.9436C54.5549 99.9436 53.8 99.1888 53.8 98.2619C53.8 97.335 54.5549 96.5811 55.4817 96.5811C56.4086 96.5811 57.1625 97.335 57.1625 98.2619C57.1625 99.1888 56.4086 99.9436 55.4817 99.9436ZM81.5084 87.605C81.3813 87.6049 81.2555 87.6299 81.138 87.6785C81.0206 87.7271 80.9139 87.7984 80.8241 87.8882C80.7342 87.9781 80.663 88.0848 80.6144 88.2022C80.5658 88.3196 80.5408 88.4454 80.5409 88.5725V98.2621C80.5408 98.3892 80.5658 98.515 80.6144 98.6325C80.663 98.7499 80.7342 98.8565 80.8241 98.9464C80.9139 99.0363 81.0206 99.1075 81.138 99.1561C81.2555 99.2047 81.3813 99.2297 81.5084 99.2296H90.9681C91.3942 100.752 92.7795 101.879 94.4366 101.879C96.431 101.879 98.0532 100.257 98.0532 98.2621C98.0532 96.2686 96.4311 94.6465 94.4366 94.6465C92.7796 94.6465 91.3945 95.7726 90.9682 97.2948H82.4759V88.5726C82.4759 88.4455 82.451 88.3197 82.4024 88.2023C82.3538 88.0848 82.2825 87.9781 82.1927 87.8883C82.1028 87.7984 81.9961 87.7271 81.8787 87.6785C81.7613 87.6299 81.6354 87.6049 81.5084 87.605ZM94.4366 96.5813C95.3635 96.5813 96.1184 97.3351 96.1184 98.262C96.1184 99.1889 95.3635 99.9438 94.4366 99.9438C93.5097 99.9438 92.7549 99.1889 92.7549 98.262C92.7549 97.3351 93.5097 96.5813 94.4366 96.5813Z" fill="white"/>
<circle cx="10.2694" cy="75.4964" r="2.76596" fill="white"/>
<circle cx="138.426" cy="75.4964" r="2.76596" fill="white"/>
</svg>
