<svg xmlns="http://www.w3.org/2000/svg" xmlns:xlink="http://www.w3.org/1999/xlink" viewBox="0,0,256,256" width="50px" height="50px" fill-rule="nonzero"><g fill="#fc443c" fill-rule="nonzero" stroke="none" stroke-width="1" stroke-linecap="butt" stroke-linejoin="miter" stroke-miterlimit="10" stroke-dasharray="" stroke-dashoffset="0" font-family="none" font-weight="none" font-size="none" text-anchor="none" style="mix-blend-mode: normal"><g transform="scale(5.12,5.12)"><path d="M7.6875,0c-0.90625,0 -1.60547,0.61328 -1.8125,1.46875h-0.03125l-0.03125,0.125l-5.59375,17.53125c-0.01562,0.03516 -0.04687,0.05859 -0.0625,0.09375v0.0625c-0.04687,0.08984 -0.07812,0.18359 -0.09375,0.28125c-0.00391,0.01172 -0.02734,0.01953 -0.03125,0.03125c-0.00391,0.05078 -0.00391,0.10547 0,0.15625c-0.01172,0.08203 -0.03125,0.16406 -0.03125,0.25v8c0,0.35938 0.10938,0.70703 0.28125,1c-0.17187,0.29297 -0.28125,0.64063 -0.28125,1v8c0,0.35938 0.10938,0.70703 0.28125,1c-0.17187,0.29297 -0.28125,0.64063 -0.28125,1v8c0,1.09375 0.90625,2 2,2h46c1.09375,0 2,-0.90625 2,-2v-8c0,-0.35937 -0.10937,-0.70703 -0.28125,-1c0.17188,-0.29297 0.28125,-0.64062 0.28125,-1v-8c0,-0.35937 -0.10937,-0.70703 -0.28125,-1c0.17188,-0.29297 0.28125,-0.64062 0.28125,-1v-8c0,-0.27734 -0.08203,-0.53906 -0.1875,-0.78125c0,-0.01172 0,-0.01953 0,-0.03125l-5.625,-17.59375l-0.03125,-0.125h-0.03125c-0.20703,-0.85547 -0.90625,-1.46875 -1.8125,-1.46875zM7.78125,2h34.46875c0,0.01953 0,0.04297 0,0.0625l5.09375,15.9375h-44.71875l5.125,-15.9375c0.01172,-0.01953 0.02344,-0.04297 0.03125,-0.0625zM2,20h46v8h-46v-7.9375c0,-0.01953 0,-0.04297 0,-0.0625zM43,22c-1.10547,0 -2,0.89453 -2,2c0,1.10547 0.89453,2 2,2c1.10547,0 2,-0.89453 2,-2c0,-1.10547 -0.89453,-2 -2,-2zM2,30h46v8h-46zM43,32c-1.10547,0 -2,0.89453 -2,2c0,1.10547 0.89453,2 2,2c1.10547,0 2,-0.89453 2,-2c0,-1.10547 -0.89453,-2 -2,-2zM2,40h46v8h-46zM43,42c-1.10547,0 -2,0.89453 -2,2c0,1.10547 0.89453,2 2,2c1.10547,0 2,-0.89453 2,-2c0,-1.10547 -0.89453,-2 -2,-2z"></path></g></g></svg>