<svg xmlns="http://www.w3.org/2000/svg" xmlns:xlink="http://www.w3.org/1999/xlink" viewBox="0,0,256,256" width="50px" height="50px" fill-rule="nonzero"><g fill="#fc443c" fill-rule="nonzero" stroke="none" stroke-width="1" stroke-linecap="butt" stroke-linejoin="miter" stroke-miterlimit="10" stroke-dasharray="" stroke-dashoffset="0" font-family="none" font-weight="none" font-size="none" text-anchor="none" style="mix-blend-mode: normal"><g transform="scale(5.12,5.12)"><path d="M25,0c-1.84375,0 -3.33984,1.29297 -3.79687,3h-12.20312c-1.64453,0 -3,1.35547 -3,3v39c0,1.64453 1.35547,3 3,3h32c1.64453,0 3,-1.35547 3,-3v-39c0,-1.64453 -1.35547,-3 -3,-3h-12.20312c-0.45703,-1.70703 -1.95312,-3 -3.79687,-3zM25,2c1.11719,0 2,0.88281 2,2c0,0.55078 0.44922,1 1,1h3v2h-12v-2h3c0.55078,0 1,-0.44922 1,-1c0,-1.11719 0.88281,-2 2,-2zM9,5h8v3c0,0.55078 0.44922,1 1,1h14c0.55078,0 1,-0.44922 1,-1v-3h8c0.56641,0 1,0.43359 1,1v39c0,0.56641 -0.43359,1 -1,1h-32c-0.56641,0 -1,-0.43359 -1,-1v-39c0,-0.56641 0.43359,-1 1,-1zM33,12c0,0 -3.26172,3 -3,3h2v2.03125c-0.00391,0.35938 0.18359,0.69531 0.49609,0.875c0.3125,0.18359 0.69531,0.18359 1.00781,0c0.3125,-0.17969 0.5,-0.51562 0.49609,-0.875v-2.03125h2zM14.98828,17.98828c-0.40625,0.00391 -0.76953,0.25 -0.92578,0.625c-0.15234,0.37891 -0.0625,0.80859 0.23047,1.09375l1.29297,1.29297l-1.29297,1.29297c-0.26172,0.25 -0.36719,0.625 -0.27344,0.97266c0.08984,0.35156 0.36328,0.625 0.71484,0.71484c0.34766,0.09375 0.72266,-0.01172 0.97266,-0.27344l1.29297,-1.29297l1.29297,1.29297c0.25,0.26172 0.625,0.36719 0.97266,0.27344c0.35156,-0.08984 0.625,-0.36328 0.71484,-0.71484c0.09375,-0.34766 -0.01172,-0.72266 -0.27344,-0.97266l-1.29297,-1.29297l1.29297,-1.29297c0.29688,-0.28906 0.38281,-0.72656 0.22266,-1.10547c-0.16016,-0.38281 -0.53516,-0.625 -0.94922,-0.61328c-0.26172,0.00781 -0.50781,0.11719 -0.6875,0.30469l-1.29297,1.29297l-1.29297,-1.29297c-0.1875,-0.19531 -0.44531,-0.30078 -0.71875,-0.30469zM33,19c-1.10547,0 -2,0.89453 -2,2c0,1.10547 0.89453,2 2,2c1.10547,0 2,-0.89453 2,-2c0,-1.10547 -0.89453,-2 -2,-2zM29.54688,22.22266c-0.19141,0.00391 -0.37891,0.0625 -0.53516,0.16797l-10.00781,6.47266c-0.30859,0.19141 -0.49219,0.53516 -0.47656,0.89844c0.01563,0.36328 0.22656,0.6875 0.55078,0.85156c0.32813,0.16016 0.71484,0.13672 1.01563,-0.07031l10,-6.47266c0.38281,-0.23828 0.55859,-0.70312 0.42969,-1.13281c-0.12891,-0.42969 -0.52734,-0.72266 -0.97656,-0.71484zM32.98828,27.98828c-0.40625,0.00391 -0.76953,0.25 -0.92578,0.625c-0.15234,0.37891 -0.0625,0.80859 0.23047,1.09375l1.29297,1.29297l-1.29297,1.29297c-0.26172,0.25 -0.36719,0.625 -0.27344,0.97266c0.08984,0.35156 0.36328,0.625 0.71484,0.71484c0.34766,0.09375 0.72266,-0.01172 0.97266,-0.27344l1.29297,-1.29297l1.29297,1.29297c0.25,0.26172 0.625,0.36719 0.97266,0.27344c0.35156,-0.08984 0.625,-0.36328 0.71484,-0.71484c0.09375,-0.34766 -0.01172,-0.72266 -0.27344,-0.97266l-1.29297,-1.29297l1.29297,-1.29297c0.29688,-0.28906 0.38281,-0.72656 0.22266,-1.10547c-0.16016,-0.38281 -0.53516,-0.625 -0.94922,-0.61328c-0.26172,0.00781 -0.50781,0.11719 -0.6875,0.30469l-1.29297,1.29297l-1.29297,-1.29297c-0.1875,-0.19531 -0.44531,-0.30078 -0.71875,-0.30469zM16,30c-1.10547,0 -2,0.89453 -2,2c0,1.10547 0.89453,2 2,2c1.10547,0 2,-0.89453 2,-2c0,-1.10547 -0.89453,-2 -2,-2zM19.44922,33.62109c-0.42578,0.01563 -0.79297,0.30078 -0.91797,0.70703c-0.12109,0.41016 0.02734,0.84766 0.37109,1.09766l4.82031,3.61719c0.28516,0.22656 0.67188,0.28125 1.00781,0.14063c0.33594,-0.14062 0.57031,-0.45312 0.60938,-0.81641c0.04297,-0.35937 -0.12109,-0.71484 -0.41797,-0.92578l-4.81641,-3.61328c-0.1875,-0.14453 -0.42187,-0.21875 -0.65625,-0.20703zM28,39c-1.10547,0 -2,0.89453 -2,2c0,1.10547 0.89453,2 2,2c1.10547,0 2,-0.89453 2,-2c0,-1.10547 -0.89453,-2 -2,-2z"></path></g></g></svg>