<svg xmlns="http://www.w3.org/2000/svg" xmlns:xlink="http://www.w3.org/1999/xlink" viewBox="0,0,256,256" width="50px" height="50px" fill-rule="nonzero"><g fill="#e09c2e" fill-rule="nonzero" stroke="none" stroke-width="1" stroke-linecap="butt" stroke-linejoin="miter" stroke-miterlimit="10" stroke-dasharray="" stroke-dashoffset="0" font-family="none" font-weight="none" font-size="none" text-anchor="none" style="mix-blend-mode: normal"><g transform="scale(5.12,5.12)"><path d="M12,0c-1.09306,0 -2,0.90694 -2,2v2h-6c-0.40652,0 -0.85258,0.06379 -1.27734,0.35938c-0.42477,0.29558 -0.72266,0.88522 -0.72266,1.43359v40.25c0,0.50025 0.17139,1.01097 0.5293,1.38477c0.35791,0.3738 0.88155,0.57227 1.38867,0.57227h42.16602c0.50704,0 1.02913,-0.19851 1.38672,-0.57227c0.35759,-0.37376 0.5293,-0.88451 0.5293,-1.38477v-40.25c0,-0.54837 -0.29789,-1.13801 -0.72266,-1.43359c-0.42477,-0.29558 -0.87083,-0.35937 -1.27734,-0.35937h-6v-2c0,-1.09306 -0.90694,-2 -2,-2h-2c-1.09306,0 -2,0.90694 -2,2v2h-18v-2c0,-1.09306 -0.90694,-2 -2,-2zM12,2h2v6h-2zM36,2h2v6h-2zM4,6h6v2c0,1.09306 0.90694,2 2,2h2c1.09306,0 2,-0.90694 2,-2v-2h18v2c0,1.09306 0.90694,2 2,2h2c1.09306,0 2,-0.90694 2,-2v-2h6v7h-42zM4,15h42v31h-42zM22.61328,23.625c-0.118,0.643 -0.39784,1.10944 -0.83984,1.39844c-0.442,0.289 -1.04841,0.43359 -1.81641,0.43359h-0.20703v1.54297h2.25v8h2.31055v-11.375zM26.625,26l2.34766,9h2.44141l1.55664,-6.21094h0.14453l1.57227,6.21094h2.47266l2.33984,-9h-2.30664l-1.30859,6.45508h-0.14453l-1.54883,-6.45508h-2.21875l-1.54102,6.45508h-0.14258l-1.30859,-6.45508zM10.37695,30v2h7.9668v-2z"></path></g></g></svg>