<svg xmlns="http://www.w3.org/2000/svg" viewBox="0 0 125.91 27.05"><defs><style>.cls-1{fill:#f9423a;}</style></defs><g id="Layer_2" data-name="Layer 2"><g id="Layer_1-2" data-name="Layer 1"><path d="M22.59,26.79h-5.3L5.3,8.66V26.79H0V.34H5.3l12,18.16V.34h5.3Z"/><path d="M33.1,4.65v6.62H42v4.2H33.1v7h10v4.32H27.81V.34H43.13V4.65Z"/><path class="cls-1" d="M63.75,26.79,58,17.89l-5.18,8.9h-6L55.2,13.47,46.76.38h6.09l5.71,8.85L63.71.38h6L61.4,13.66l8.44,13.13Z"/><path d="M78,26.1a8.11,8.11,0,0,1-3.5-2.72,7.11,7.11,0,0,1-1.32-4.2h5.67A3.68,3.68,0,0,0,80,21.75a4.11,4.11,0,0,0,2.86.95,4.4,4.4,0,0,0,2.91-.89,2.88,2.88,0,0,0,1.06-2.33,2.7,2.7,0,0,0-.72-1.93,5.06,5.06,0,0,0-1.79-1.19,29.33,29.33,0,0,0-3-1,32.43,32.43,0,0,1-4.18-1.5,7.23,7.23,0,0,1-2.77-2.23,6.43,6.43,0,0,1-1.15-4,7.17,7.17,0,0,1,1.17-4.09A7.37,7.37,0,0,1,77.75.93,11.91,11.91,0,0,1,82.59,0a10.5,10.5,0,0,1,6.64,2,7.37,7.37,0,0,1,2.82,5.54H86.22a3,3,0,0,0-1.15-2.25,4.33,4.33,0,0,0-2.86-.89,3.67,3.67,0,0,0-2.48.79,2.87,2.87,0,0,0-.93,2.31,2.41,2.41,0,0,0,.7,1.76,5.34,5.34,0,0,0,1.74,1.13c.7.29,1.68.63,2.94,1a31.39,31.39,0,0,1,4.2,1.51,7.69,7.69,0,0,1,2.8,2.27,6.31,6.31,0,0,1,1.17,4,7.49,7.49,0,0,1-1.1,3.94A7.74,7.74,0,0,1,88,26a11,11,0,0,1-5,1.08A12.34,12.34,0,0,1,78,26.1Z"/><path d="M102.22.38V26.79H96.93V.38Z"/><path d="M111.59,26.1a8.05,8.05,0,0,1-3.5-2.72,7.19,7.19,0,0,1-1.33-4.2h5.68a3.64,3.64,0,0,0,1.15,2.57,4.1,4.1,0,0,0,2.86.95,4.42,4.42,0,0,0,2.91-.89,2.88,2.88,0,0,0,1.06-2.33,2.7,2.7,0,0,0-.72-1.93,5.1,5.1,0,0,0-1.8-1.19,27.73,27.73,0,0,0-3-1,33.58,33.58,0,0,1-4.18-1.5A7.28,7.28,0,0,1,108,11.67a6.37,6.37,0,0,1-1.15-4A7.17,7.17,0,0,1,108,3.59,7.39,7.39,0,0,1,111.3.93,11.94,11.94,0,0,1,116.14,0a10.46,10.46,0,0,1,6.64,2,7.31,7.31,0,0,1,2.82,5.54h-5.82a3,3,0,0,0-1.16-2.25,4.3,4.3,0,0,0-2.85-.89,3.67,3.67,0,0,0-2.48.79,2.87,2.87,0,0,0-.93,2.31,2.37,2.37,0,0,0,.7,1.76,5.34,5.34,0,0,0,1.74,1.13c.7.29,1.67.63,2.93,1a30.39,30.39,0,0,1,4.2,1.51,7.53,7.53,0,0,1,2.8,2.27,6.31,6.31,0,0,1,1.18,4,7.49,7.49,0,0,1-1.1,3.94A7.77,7.77,0,0,1,121.59,26a10.94,10.94,0,0,1-5,1.08A12.34,12.34,0,0,1,111.59,26.1Z"/></g></g></svg>